<?xml version="1.0" encoding="utf-8"?>
<!-- Generator: Adobe Illustrator 18.1.1, SVG Export Plug-In . SVG Version: 6.00 Build 0)  -->
<!DOCTYPE svg PUBLIC "-//W3C//DTD SVG 1.1//EN" "http://www.w3.org/Graphics/SVG/1.1/DTD/svg11.dtd">
<svg version="1.1" id="Ebene_1" xmlns="http://www.w3.org/2000/svg" xmlns:xlink="http://www.w3.org/1999/xlink" x="0px" y="0px"
	 viewBox="0 0 90 90" enable-background="new 0 0 90 90" xml:space="preserve">
<g>
	<path fill="#29B3D4" d="M44.9,89.9c-14.2,0-28.3-0.1-42.5,0.1c-2.1,0-2.6-0.4-2.6-2.6C0,59.1,0,30.8-0.1,2.4c0-2.1,0.4-2.6,2.6-2.6
		c28.3,0.1,56.7,0.1,85,0c2.1,0,2.6,0.4,2.6,2.6c-0.1,28.3-0.1,56.7,0,85c0,2.1-0.4,2.6-2.6,2.6C73.3,89.9,59.1,89.9,44.9,89.9z"/>
	<path fill="#FDFEFE" d="M23.8,46.4c0.2-16.8,14.4-28.2,29.1-23.5c11.6,3.7,16.6,19.6,9.3,29.2c-3.6,4.7-8.8,5.4-13,1.4
		c-1.4-1.4-1.8-0.6-2.7,0.2c-2.9,2.6-6.2,3.6-9.6,1.6C33,53,33,49.1,33.7,45.1c1.6-9,9.1-14.1,17.8-12.1c2.4,0.5,3.8,1.3,3,4.4
		c-0.9,3.2-1.1,6.6-1.4,9.9c-0.2,1.7-0.8,4,1.5,4.7c2.1,0.6,3.5-1,4.3-2.6c2.8-5.4,2.7-11,0-16.3c-2.6-5.1-7.3-7.3-12.8-7.2
		c-7.5,0.1-13.2,3.5-16.2,10.4c-3.2,7.4-3.7,14.9,1.4,21.7c4.6,6.2,11.1,7.2,18.3,5.2c1.1-0.3,2.9-1.8,3.6,0.6
		c0.9,2.8-1.9,2.5-3,2.9C35.9,71.1,23.6,61.8,23.8,46.4z"/>
	<path fill="#20AED1" d="M39.4,47.8c-0.2-5.2,3.2-9.7,6.7-9.9c1.6-0.1,2.3,0.3,2.3,2.2c-0.1,5.7-2.7,11-5.8,11
		C40,51.2,39.5,49.2,39.4,47.8z"/>
</g>
</svg>
