<?xml version="1.0" encoding="utf-8"?>
<!-- Generator: Adobe Illustrator 18.1.1, SVG Export Plug-In . SVG Version: 6.00 Build 0)  -->
<!DOCTYPE svg PUBLIC "-//W3C//DTD SVG 1.1//EN" "http://www.w3.org/Graphics/SVG/1.1/DTD/svg11.dtd">
<svg version="1.1" id="Ebene_1" xmlns="http://www.w3.org/2000/svg" xmlns:xlink="http://www.w3.org/1999/xlink" x="0px" y="0px"
	 viewBox="0 0 90 90" enable-background="new 0 0 90 90" xml:space="preserve">
<g>
	<g>
		<path d="M89.9,87.8c0,0.3,0,0.7,0,1c-1.1,0.7-2.2,0.5-3.4,0.5c-27.6,0-55.2,0-82.7,0c-1,0-2,0.1-2.9-0.4c-0.7-1.4-0.4-3-0.4-4.4
			c0-26.3,0.1-52.7-0.1-79c0-4.1,1-5.3,5.2-5.3c26.7,0.2,53.3,0.1,80,0.1c1.5,0,3-0.4,4.4,0.5c0,0.3,0,0.7,0,1
			c-0.8,1-0.5,2.2-0.5,3.4c0,26.4,0,52.8,0,79.2C89.4,85.5,89.2,86.7,89.9,87.8z"/>
		<path fill="#0E0F0E" d="M89.9,0.8C62,0.8,34.1,0.8,6.2,0.7C2.1,0.6,0.8,1.8,0.9,6C1,33.6,1,61.1,1,88.7c0.3,0.2,0.5,0.5,0.3,0.7
			c-0.1,0.2-0.2,0.3-0.4,0.3c-2,0.2-0.9-1.4-0.9-2C-0.1,59.3,0,30.9-0.1,2.5c0-1.6-0.5-2.8,2.3-2.8C31.1-0.2,60-0.2,89-0.3
			C89.8-0.3,90.1-0.1,89.9,0.8z"/>
		<path fill="#0E0F0E" d="M0.9,89.8c0-0.3,0-0.7,0-1c29.7,0,59.3,0,89,0c-0.9,2.1-2.7,0.9-4,0.9C57.6,89.8,29.3,89.8,0.9,89.8z"/>
		<path fill="#0D0E0D" d="M89.9,87.8c-1.5-1.3-1-3.1-1-4.7c0-25.6,0-51.1,0-76.7c0-1.6-0.5-3.4,1-4.7C89.9,30.4,89.9,59.1,89.9,87.8
			z"/>
		<path fill="#FCFCFC" d="M20.9,43.3c0-0.3,0-0.7,0-1c0.3-4.4-1.9-11.4,0.8-12.7c5-2.4,11.7-1.4,17.5-0.4c5.2,0.9,7.4,7.2,4.3,11.4
			c-1,1.4-1.8,1.6,0,3.1c2.9,2.3,2.8,5.9,1.9,9.2c-0.9,3.4-3.7,5.3-7,5.6c-5.1,0.4-10.3,0.2-15.4,0.3c-2.3,0.1-2.2-1.4-2.2-2.9
			C20.9,51.6,20.9,47.5,20.9,43.3z"/>
		<path fill="#FBFBFB" d="M61,49.4c-1,0-2.1-0.2-3,0.1c-1.5,0.4-4.2-1.5-4.2,1.5c0,2.4,2.4,3.4,4.7,3.6c1.9,0.1,3.4-0.6,4.7-2.2
			c1.3-1.6,3.5-1.5,5-0.5c1.3,0.9,0.1,2.5-0.5,3.5c-2.1,3.6-9,5.1-14.1,3.2c-4.6-1.7-7.2-6.6-6.5-12.2c0.8-5.8,4.6-9.5,10.1-9.8
			c6-0.4,9.7,1.9,11.2,6.9c1.6,5.2,1,6-4.4,6C63,49.4,62,49.4,61,49.4z"/>
		<path fill="#DBDBDB" d="M58.8,30.2c1.9,1.2,5.5-1.4,5.7,2c0.2,4.2-3.8,2-5.7,2c-2.2,0-6.4,2.1-6.5-1.6
			C52.1,28.2,56.7,31.7,58.8,30.2z"/>
		<path fill="#090909" d="M32.2,45.4c3.6,0,7.1-0.7,7.2,3.8c0.1,4.8-3.7,4-6.7,4.1c-2.9,0.1-5.2,0.4-5.2-4.1
			C27.5,44.5,30.2,45.4,32.2,45.4z"/>
		<path fill="#0C0C0C" d="M32.6,40.8c-2.1-0.2-5.1,1.3-5-3.4c0.1-4.3,2.7-3.2,5-3.2c2.5,0,5.8-1,5.9,3.2
			C38.6,41.4,35.4,40.8,32.6,40.8z"/>
		<path fill="#212121" d="M58.5,45.7c-1.6-1-4.4,1-4.5-1.6c0-2.3,2.4-3.4,4.8-3.4c2.2,0,4.3,1.3,4.1,3.4
			C62.5,47,59.7,44.4,58.5,45.7z"/>
	</g>
</g>
</svg>
