<?xml version="1.0" encoding="utf-8"?>
<!-- Generator: Adobe Illustrator 18.1.1, SVG Export Plug-In . SVG Version: 6.00 Build 0)  -->
<!DOCTYPE svg PUBLIC "-//W3C//DTD SVG 1.1//EN" "http://www.w3.org/Graphics/SVG/1.1/DTD/svg11.dtd">
<svg version="1.1" id="Ebene_1" xmlns="http://www.w3.org/2000/svg" xmlns:xlink="http://www.w3.org/1999/xlink" x="0px" y="0px"
	 viewBox="0 0 90 90" enable-background="new 0 0 90 90" xml:space="preserve">
<g>
	<g>
		<path fill="#0E6FAC" d="M-0.1,89.9c0-30,0-60,0-90c28.8,0,57.7,0.1,86.5-0.1c3,0,3.6,0.6,3.6,3.6c-0.1,27.7-0.1,55.3,0,83
			c0,3-0.6,3.6-3.6,3.6C57.6,89.9,28.7,89.9-0.1,89.9z"/>
		<path fill="#FDFDFE" d="M51.2,23.7c3.2-0.6,5.2,0.3,4.7,4.6c-0.2,2.1-0.7,3-2.9,2.9c-2.9-0.2-4.1,1.1-4.1,4.1
			c-0.1,3.4,2.2,2.6,4,2.7c1.6,0,3.4,0,2.7,2.3c-0.6,1.9,0.8,5.5-2.8,5.3c-4.2-0.3-4,2-3.9,4.9c0.1,4.6-0.2,9.3,0.1,13.9
			c0.2,3.9-2.3,3.2-4.6,3.2c-2.2,0-4.8,0.7-4.6-3.2c0.2-5.1,0.1-10.3,0-15.4c0-1.2,0.7-3.2-1.3-3.1c-3.3,0.1-3.3-1.8-3.3-4.1
			c0-2.2,0.1-3.8,3.1-3.8c2.4,0,1.4-2.2,1.4-3.5C40.2,26.1,42.6,23.8,51.2,23.7z"/>
	</g>
</g>
</svg>
