<?xml version="1.0" encoding="utf-8"?>
<!-- Generator: Adobe Illustrator 18.1.1, SVG Export Plug-In . SVG Version: 6.00 Build 0)  -->
<!DOCTYPE svg PUBLIC "-//W3C//DTD SVG 1.1//EN" "http://www.w3.org/Graphics/SVG/1.1/DTD/svg11.dtd">
<svg version="1.1" id="Ebene_1" xmlns="http://www.w3.org/2000/svg" xmlns:xlink="http://www.w3.org/1999/xlink" x="0px" y="0px"
	 viewBox="0 0 88.4 88.2" enable-background="new 0 0 88.4 88.2" xml:space="preserve">
<g>
	<defs>
		<rect id="SVGID_1_" x="0" y="0" width="88.4" height="88.2"/>
	</defs>
	<clipPath id="SVGID_2_">
		<use xlink:href="#SVGID_1_"  overflow="visible"/>
	</clipPath>
	<g clip-path="url(#SVGID_2_)">
		<path fill="#000100" d="M89,89.1c-28.8,0-57.6,0-86.3,0c-2.5,0-3.8,0.1-3.8-3.4c0.2-27.8,0.2-55.6,0-83.3c0-3.5,1.3-3.4,3.8-3.4
			c28.8,0.1,57.6,0,86.3,0c0.7,1.1,0.5,2.2,0.5,3.4c0,27.7,0,55.5,0,83.2C89.5,86.9,89.7,88.1,89,89.1z"/>
		<path fill="#FEFEFE" d="M28.2,54.9c2.6,1.9,4.3,3.7,7.1,3.5c2.6-0.2,3.5-2.1,3.9-3.9c0.4-2.1-1.8-1.3-2.9-1.7
			c-7.9-2.5-11.2-10-7.5-17.4c0.8-1.5,1.1-2.9,1-4.7c-0.3-4.6,0.8-5.4,4.6-3.3c2.4,1.3,4.5,1.4,7.1,1c5.1-0.9,10.5,1.6,15.4-1.8
			c1.6-1.1,2.3,1,2.2,2.3c-0.4,3.3,1,6,1.9,9c2.4,7.4-1.8,13-11.6,15.9c0.5,1.2,1.2,2.4,1.3,3.6c0.3,2.9,1.5,7.5-0.6,8.4
			c-3.2,1.4-7.5,0.5-11.3,0.6c-0.1,0-0.4-0.2-0.4-0.2c0.7-6.4-5.2-4.3-7.9-6.3C29.3,58.9,28.5,57.7,28.2,54.9z"/>
	</g>
</g>
</svg>
