<?xml version="1.0" encoding="utf-8"?>
<!-- Generator: Adobe Illustrator 18.1.1, SVG Export Plug-In . SVG Version: 6.00 Build 0)  -->
<!DOCTYPE svg PUBLIC "-//W3C//DTD SVG 1.1//EN" "http://www.w3.org/Graphics/SVG/1.1/DTD/svg11.dtd">
<svg version="1.1" id="Ebene_1" xmlns="http://www.w3.org/2000/svg" xmlns:xlink="http://www.w3.org/1999/xlink" x="0px" y="0px"
	 viewBox="0 0 90.1 90.1" enable-background="new 0 0 90.1 90.1" xml:space="preserve">
<g>
	<path fill="#52B7F5" d="M45.1,90.1c-14.2,0-28.3-0.1-42.5,0.1c-2.1,0-2.6-0.4-2.6-2.6c0.1-28.3,0.1-56.7,0-85C0,0.4,0.4,0,2.6,0
		c28.3,0.1,56.7,0.1,85,0c2.1,0,2.6,0.4,2.6,2.6c-0.1,28.3-0.1,56.7,0,85c0,2.1-0.4,2.6-2.6,2.6C73.4,90,59.2,90.1,45.1,90.1z"/>
	<path fill="#FCFDFB" d="M57.4,32.6c2.4-0.2,1.2-5,3.6-3.5c2.4,1.4-0.3,3.8-1.2,5.6c-0.7,1.5-1.8,2.8-2.6,4.1
		c-2.2-0.2-1.6-2.6-3.3-3.4c-1.8,1.6-2.4,4.1-3.6,6.1c-0.8,1.4-0.9,2.6,0.6,3.9c4.9,4.5,4.8,4.6,0.2,9.5C45,61.3,45,61.3,44.3,68
		c-3.8-1.9-4.5-3.8-1.9-7c1.8-2.2,3.3-4.6,4.6-7.1c0.5-1,1.6-2.2,0.4-3.1c-1.3-1.1-2.2,0.5-2.8,1.2c-5.6,7.4-15.3,11.5-17.1,22.6
		c-2.9-6.1-2.8-6,0.8-9.9c7.5-8.3,12.9-17.7,14.5-28.9c0.2-1.6,0.7-3.6-0.7-4.7C40.7,30,39,31.3,37.6,32c-1.9,0.8-1.9,2.6-1.6,4.3
		c0.3,1.3,0.7,2.6,1.1,3.8c0.4,1.1,0.8,2.5-0.9,2.7c-1.5,0.2-1.8-1.1-1.9-2.3c0-0.2,0-0.3,0-0.5c-1.6-10.6-0.6-12.1,10-15.1
		c1.6-0.5,2.5-0.7,2.5-2.8c-0.1-3,1.9-4.7,4.9-3.9c3.2,0.9,2.1,3.5,1,5.2c-1.1,1.8-1.4,3,0.9,3.7C56.4,28,55.3,31.4,57.4,32.6z"/>
</g>
</svg>
