<?xml version="1.0" encoding="utf-8"?>
<!-- Generator: Adobe Illustrator 18.1.1, SVG Export Plug-In . SVG Version: 6.00 Build 0)  -->
<!DOCTYPE svg PUBLIC "-//W3C//DTD SVG 1.1//EN" "http://www.w3.org/Graphics/SVG/1.1/DTD/svg11.dtd">
<svg version="1.1" id="Ebene_1" xmlns="http://www.w3.org/2000/svg" xmlns:xlink="http://www.w3.org/1999/xlink" x="0px" y="0px"
	 viewBox="0 0 257.1 257.1" enable-background="new 0 0 257.1 257.1" xml:space="preserve">
<g>
	<g>
		<path fill="#3F5788" d="M1,1c84,0,168,0,252-0.1c3.4,0,4.1,0.7,4.1,4.1c-0.1,82.7-0.1,165.3,0,248c0,3.4-0.7,4.1-4.1,4.1
			c-82.7-0.1-165.3-0.1-248,0c-3.4,0-4.1-0.7-4.1-4.1C1,169,1,85,1,1z"/>
		<path fill="#FEFEFE" d="M171.3,169.2c0,6.4,0,11.9,0,17.4c0,1.6-0.3,2.8-2,3.5c-15.9,6.9-32,9.4-48.2,1.6
			c-9.8-4.7-15.2-12.5-15.2-23.8c0.1-15.5-0.1-31,0.1-46.5c0-3.7-0.9-5-4.7-4.8c-4.4,0.2-10.3,2-13-0.7c-2.9-2.9-0.5-8.9-1-13.4
			c-0.3-2.8,0.5-4.5,3.4-5.5c14.9-4.8,22.5-15.9,25-30.7c0.6-3.7,2.1-4.6,5.4-4.4c3.5,0.2,7,0.2,10.5,0c2.6-0.1,3.5,0.9,3.4,3.5
			c-0.1,8,0.1,16-0.2,24c-0.1,3.2,0.8,4,3.8,4c7.8-0.2,15.7,0.1,23.5-0.1c3.1-0.1,4.1,0.9,3.9,3.9c-0.2,5.3-0.2,10.7,0,16
			c0.1,2.9-1,3.7-3.7,3.6c-7.8-0.2-15.7,0-23.5-0.1c-2.8-0.1-4.2,0.5-4.1,3.8c0.2,13.3,0,26.7,0.3,40c0.2,9.2,5.3,14.1,14.6,14.7
			C157.2,175.7,164,173.3,171.3,169.2z"/>
	</g>
</g>
</svg>
