<?xml version="1.0" encoding="utf-8"?>
<!-- Generator: Adobe Illustrator 18.1.1, SVG Export Plug-In . SVG Version: 6.00 Build 0)  -->
<!DOCTYPE svg PUBLIC "-//W3C//DTD SVG 1.1//EN" "http://www.w3.org/Graphics/SVG/1.1/DTD/svg11.dtd">
<svg version="1.1" id="Ebene_1" xmlns="http://www.w3.org/2000/svg" xmlns:xlink="http://www.w3.org/1999/xlink" x="0px" y="0px"
	 viewBox="0 0 90.1 90.1" enable-background="new 0 0 90.1 90.1" xml:space="preserve">
<g>
	<path fill="#0887CF" d="M45.1,90.1c-14.2,0-28.3-0.1-42.5,0.1c-2.1,0-2.6-0.4-2.6-2.6c0.1-28.3,0.1-56.7,0-85C0,0.4,0.4,0,2.6,0
		c28.3,0.1,56.7,0.1,85,0c2.1,0,2.6,0.4,2.6,2.6c-0.1,28.3-0.1,56.7,0,85c0,2.1-0.4,2.6-2.6,2.6C73.4,90,59.2,90.1,45.1,90.1z"/>
	<path fill="#FEFEFE" d="M44.7,64.1c-5.5,0-11,0-16.5,0c-4.3,0-6.3-2-6.3-6.4c0.1-8.3,0.3-16.6-0.1-24.9c-0.2-4.3,1.9-5.7,5.3-5.8
		c11.8-0.2,23.6-0.1,35.4,0c3,0,4.8,1.4,4.7,4.9c-0.1,9,0,17.9-0.1,26.9c0,3.7-1.8,5.4-5.6,5.3C56,64,50.4,64.1,44.7,64.1z"/>
	<path fill="#0988CF" d="M44.6,58.8c-5,0-10-0.1-14.9,0c-2.4,0.1-3.7-0.4-3.6-3.3c0.2-7.1,0.1-14.3,0-21.4c0-2.3,0.7-3.2,3.1-3.2
		c10.5,0.1,20.9,0.1,31.4,0c2.4,0,3.2,0.8,3.2,3.2c-0.1,7.1-0.1,14.3,0,21.4c0,2.7-1.2,3.3-3.6,3.3C54.9,58.8,49.8,58.8,44.6,58.8z"
		/>
	<path fill="#F9FCFD" d="M52.6,54.9c-1.9-0.6-4.2,0.8-5.2-1.2c-1.1-2.1,1.2-3.3,2.3-4.3c1.7-1.5,1.5-2.1,0-3.8
		c-1.9-2.2-1-8.2,0.9-8.5c1.7-0.3,3.9-1,5.1,0.6c1.1,1.5,1.7,3.5,0.7,5.6c-1.2,2.6-2.7,5.5,1,7.7c0.9,0.5,0.9,2,0.4,2.7
		C56.5,55.9,54.2,54,52.6,54.9z"/>
	<path fill="#EFF7FB" d="M36.7,43.1c1.3,0,2.6,0,3.9,0c1.5,0,2,0.9,1.9,2.2c0,1.3-0.3,2.4-1.8,2.4c-2.1,0.1-4.3,0.1-6.4,0.1
		c-1.7,0-3.3,0.2-3.4-2.4c-0.1-2.7,1.7-2.3,3.3-2.3C35.1,43,35.9,43,36.7,43.1C36.7,43,36.7,43,36.7,43.1z"/>
	<path fill="#F1F8FC" d="M36.9,49.9c1.3,0,2.7,0,4,0c1.6,0.1,1.7,1.3,1.7,2.5c0,1.3-0.3,2.4-1.9,2.4c-2.7,0-5.3,0-8,0
		c-1.7,0-1.6-1.4-1.6-2.5c-0.1-1.3,0.2-2.3,1.8-2.3C34.2,49.9,35.5,49.9,36.9,49.9C36.9,49.9,36.9,49.9,36.9,49.9z"/>
	<path fill="#F7FBFD" d="M36.7,40.2c-1.8-1-5.3,1.3-5.4-1.6c-0.1-3.5,3.5-1.8,5.4-1.8c1.9,0,5.6-1.6,5.4,1.8
		C42.1,41.5,38.6,39.4,36.7,40.2z"/>
</g>
</svg>
