<?xml version="1.0" encoding="utf-8"?>
<!-- Generator: Adobe Illustrator 18.1.1, SVG Export Plug-In . SVG Version: 6.00 Build 0)  -->
<!DOCTYPE svg PUBLIC "-//W3C//DTD SVG 1.1//EN" "http://www.w3.org/Graphics/SVG/1.1/DTD/svg11.dtd">
<svg version="1.1" id="Ebene_1" xmlns="http://www.w3.org/2000/svg" xmlns:xlink="http://www.w3.org/1999/xlink" x="0px" y="0px"
	 viewBox="0 0 320 320" enable-background="new 0 0 320 320" xml:space="preserve">
<g>
	<path fill="#FEFEFE" d="M12,321c-3.7,0-8.8,1.4-10.6-0.4C-0.4,318.8,1,313.7,1,310C1,208.4,1,106.8,0.9,5.2c0-3.8,1.1-4.2,4.4-4.2
		C109.1,1,212.9,1,316.7,0.9c3.4,0,4.4,0.4,4.4,4.2c-0.1,103.9-0.1,207.9,0,311.8c0,3.4-0.7,4.4-4.1,4.1c-4.6-0.4-9.3-0.1-14-0.1
		c-1.8-4-0.6-8,0.7-11.6c4.7-13.2,4.6-26.3,0.8-39.6c-0.7-2.4-2.1-4.1-4-5.6c-2.6-2.1-5.2-4.1-7.3-6.7c-2.1-2.6-0.3-5.5-0.6-8.2
		c-1-11.7,2.6-23.1,2.8-34.7c0.1-3.5,0.2-7.1-1-10.4c-4.3-11.8-2.6-24-2.4-36.1c0-2.3,0.4-4.7-0.3-6.9c-2.7-8.7-2-17.4-0.5-26.1
		c0.6-3.4,0.1-6.2-2.3-8.8c-1-1.1-1.9-2.4-2.2-3.9c-1.3-6.9-5.3-12.5-8.5-18.5c-0.9-1.6-1.9-3.3-1.5-5.2c1.1-4.9-1.7-6.2-5.7-6.6
		c-4.9-2.1-6.6-7.3-10.6-10.4c-4.7-4.1-10.4-6.7-16.1-9.1c-7.9-6.4-17.6-8.2-27.2-9.7c-7.8-1.2-15.7,1.1-23.5,2.1
		c-1.3,0.2-2.3,1.2-3.1,2.3c-5.1,3.8-9.8,8-13.4,13.4c-3.9,5.1-8.1,10-13.1,14.1c-1.5,1.8-3.5,3-5.3,4.3c-4.6,3.6-9.6,6.7-14,10.6
		c-3.5,3.3-6.8,6.8-10.3,10.2c-7.2,6.3-12.1,14.5-18.2,21.7c-5.1,6.1-9.8,12.6-13.4,19.7c-3.1,5.3-7,10-11,14.6c-1,1.2-2.1,2-3.7,2
		c-6.4-1.5-12.6-3.9-18.8-6.2c1.9,0.7,4.6,2.3,3.5,3.7c-2.3,3.1-5.3-0.3-7.5-0.2c3.1,4.6,9.7,6.8,12.2,12.9
		c-1.6,3.8-5.8,4.5-8.6,6.8c-4.8,2.1-9.7,3.7-13,3.7c2.1-0.2,6,0.7,9.9,1.4c1.6,0.3,3.7,0.6,4.1,2.3c0.4,1.9-1.7,2.6-2.9,3.5
		c-0.5,0.4-1.1,0.7-1.7,1c-5.6,2.7-10,6.9-14.6,10.8c-0.9,0.8-1.8,1.7-3,2c-5.4-0.4-10.9-0.2-16.9-2.7c4.6,1.8,8.1,3.6,11.8,5.2
		c0.4,0.3,0.8,0.6,1,1c0.5,5.2-3.6,8.3-5.8,12.2c-2.5,2.7-6,4-9.3,6.3c1.8,1,4.2,1.3,4.2,3.9c-5.4,9.5-6.3,20.5-10.2,30.5
		c-0.9,2.4-1.4,4.8-0.8,7.3c1.2,4.4-0.1,8.2-2.5,11.8c-0.4,0.6-0.6,1.2-1,1.7c-4.9,6.3-7.2,13.3-5.7,21.3
		C12.6,319.1,12.5,320.1,12,321z"/>
	<path fill="#121110" d="M12,321c-1.5-7.3-2.5-14.4,2.7-21.1c4.4-5.6,8.1-11.8,5.4-19.6c-0.2-0.4-0.2-1.1,0-1.5
		c4.9-11,4.9-23.7,12.2-33.9c0.4-1.9,1.7-2.7,3.4-3.2c5-1.4,9.9-3.2,15.1-4c0.5,0,1-0.1,1.5,0c7.3,2.6,14.2,2.9,20.3-2.8
		c0.9-0.9,2.5-1,3.7,0c1.3,4.2-0.4,8.2-0.8,12.3c-0.5,5-0.3,5.4,4.9,5.4c0.7,0,1.3,0,2,0c10.8,0,10.8,0,14.4-10
		c0.3-0.9,0.6-1.9,1.3-2.7c0.4-0.5,1-1,1.7-0.8c0.6,0.2,1,0.9,1.1,1.5c0.4,2.1-0.2,4-0.8,5.9c-4,11.1-3.7,22.8-5.8,35.4
		c5.1-7.5,8.7-14.4,13.5-20.5c3.6-3.4,5.1-8.1,7.8-12.1c1-1.4,1.3-3.6,3.7-3.5c1.8,1.1,2.5,2.8,2.4,4.9c0.4,5.8,1,11.5,0.8,17.3
		c-0.1,2.7,0.1,5.3-1.6,7.7c-0.7,0.8-1.6,1.2-2.6,1.3c-5.4,0.6-6.7,2.5-4.8,7.6c2,5.1,3.6,10.4,7.6,14.4c1.3,1.3,2,3,2.2,4.9
		c-0.3,5.2,2.4,10.4,0.2,15.6c-2.1,1.9-4.7,1-7.1,1c-14.9,0.1-29.7,0.1-44.6,0.1c-1,0-2-0.2-2.9,0.5c-2.7,0-5.3,0-8,0
		c-8.7-1.1-17.5-0.4-26.2-0.5c-4.3,0-8.6-0.6-12.8,0.5C18.7,321,15.3,321,12,321z"/>
	<path fill="#0A0A0B" d="M293.9,257c0.5,0.4,1.1,0.7,1.6,1.1c11.7,7.3,12.9,19,13.2,31.2c0.3,11-4.9,20.9-5.8,31.7c-0.7,0-1.3,0-2,0
		c-5.8-0.8-11.7-0.7-17.6-0.6c-10.5,0.2-20.9,0.1-31.4,0c-1.4,0-3.4,0.8-4-0.9c-0.6-1.5,0.9-2.7,1.9-3.8c0.5-0.6,1.1-1.2,1.6-1.9
		c0.2-0.5,0.5-0.9,0.8-1.3c1.5-1.7,2.5-3.9,5-4.5c10.1-0.1,16.3-4.3,19.9-14.5c3.3-9.6,7.4-19.2,13.2-27.8c1.8-2.6,0.8-5.9,2.3-8.6
		C293,256.7,293.5,256.6,293.9,257z"/>
	<path fill="#070D0F" d="M216,321c-9.7,0-19.3,0-29,0c-3-7.1-3.4-14.7-4-22.3c2.1-6.8,4.3-13.5,6.3-20.3c0.6-2.1,1.4-4.1,3-5.6
		c1.7-1.2,3.4-2.3,5.6-2.2c3.9,6,8.9,4.6,14.8,3.2c7-1.6,10.6-6.9,15.1-11.3c2.1-2,2.9-5.2,5.6-6.8c2.9-1,4.7,0.5,6,2.9
		c1.9,3.5,4,6.8,6,10.2c0.1,0.5,0.1,0.9,0,1.4c-0.2,0.5-0.4,1-0.8,1.3c-13.1,10.1-23.9,22.6-35.6,33.7c6.1-3.4,12.3-7.3,18.8-10.6
		c3.3-1.6,5.3-4.4,7.5-7.2c1.2-1.5,2-4.1,4.9-3.2c0.6,4.5-2.5,7.7-4,11.4C231.7,305.8,224.4,313.9,216,321z"/>
	<path fill="#78B0C4" d="M172,321c-4.3,0-8.7,0-13,0c-1.4-0.8-2.2-2-2.7-3.4c-4.5-12.9-8.6-25.9-11.3-39.4c-0.9-4.8,2.2-6,4.9-8
		c5.5-3,10.8-7,17.7-4c2,9.7,2.5,19.6,3.8,29.4c0.3,2.4,0.5,4.9,1,7.4C173.1,309,175,315.1,172,321z"/>
	<path fill="#88B2C8" d="M149.7,270.8c-5,3.7-2.9,8.3-2,13.1c2.5,12.7,7,24.9,11.3,37.1c-6,0-12,0-18,0c-1.8-2.1-1.4-4.6-1.4-7.1
		c-0.1-4.8,0.4-9.6-1.3-14.2c-0.1-0.6-0.1-1.1-0.1-1.7c1.5-7.4-0.8-14.5-1.3-21.7C139,272,144.2,269.8,149.7,270.8z"/>
	<path fill="#163641" d="M216,321c2.1-3.2,4.5-6.1,7.2-8.7c8-7.9,12.7-17.9,16.7-28.2c0.2-0.1,0.4-0.2,0.6-0.3
		c3.7,2.4,5.8,6.9,10.8,7.6c1.7,0.1,3.9-2.5,5.2,0.7c-0.4,2.8-2.6,4.1-4.9,5.1c-3.1,1.3-5,3.5-6.6,6.4c-3.4,6.2-7.1,12.3-12,17.4
		C227.3,321,221.7,321,216,321z"/>
	<path fill="#397688" d="M172,321c0.2-6-0.2-12-0.9-18c2.2-5.2,4.3-10.4,6.3-15.6c0.7-1.9,1.4-4.3,4.4-3.6c2.8,4.6,2.3,9.6,2.3,14.6
		c1,7.5,1.9,15.1,2.9,22.6C182,321,177,321,172,321z"/>
	<path fill="#0A0B0A" d="M139,299.1c2.5,2.8,1.8,6.2,1.9,9.5c0.1,4.1,0.1,8.3,0.1,12.4c-0.3,0-0.7,0-1,0c-1-0.8-2.2-0.6-3.3-0.5
		c-2.9,0.3-3.8-1.4-4-3.8c-0.3-3.8-0.1-7.6-0.2-11.4c0.3-3-2-4.7-3.5-6.9c-3.8-5.6-8.4-10.7-9.4-17.7c-0.2-1.6-0.9-3.2,0.4-4.7
		c1.6-7.1,1.4-14.2,0.3-21.4c-0.2-1.6-0.8-3.2,0.5-4.6c2.9,1,2.1,4,3.1,6.1c0.6,10.1,1.6,20.1,6,29.5
		C132.3,290.6,136.7,294.1,139,299.1z"/>
	<path fill="#0A0A0B" d="M233,321c4.4-7.3,8.7-14.6,13.3-21.8c2.3-3.5,7.8-2.9,9.7-7.2c2.2-4.4,2.5-4.5,4.9-2.5
		c0.4,1.5,0.4,3.2-0.5,4.3c-4.4,5.7-5.6,12.5-7.4,19.1l0,0c-3.6,5.4-8.2,8.9-15.2,7.5c-1.2-0.2-2.6-0.5-3.8,0.5
		C233.7,321,233.3,321,233,321z"/>
	<path fill="#14282E" d="M134,304c0,2.5,0.3,5,0,7.5c-0.6,4.9-0.3,9.1,6,9.6c-5.3,0-10.7,0-16,0c-0.7-0.5-0.4-1.4-1-2
		c-0.3-5.3-0.7-10.7-1-16C125.7,299.8,129.6,300.1,134,304z"/>
	<path fill="#1C1C1D" d="M234,321c0.6-0.3,1.2-1,1.7-0.9c7.3,1.4,12.7-1.9,17.3-7.1c-0.1,3-3.4,3.9-4.4,6.7c12.7,0,25.1,0,37.5,0
		c-0.1-0.7-0.1-1.5-0.3-2.9c3.1,3.5,6.8,3.4,10.6,3.3c1.6-0.1,3.4-0.6,4.6,1C278.7,321,256.3,321,234,321z"/>
	<path fill="#252322" d="M123,319c0.8,0.4,0.9,1.2,1,2c-18.3,0-36.7,0-55,0c1.5-1.7,3.4-1,5.1-1c14.7-0.1,29.5,0,44.2,0
		C120,320,121.7,320.5,123,319z"/>
	<path fill="#252322" d="M22,321c0.8-1.1,2-1,3.2-1c10.9,0,21.8,0,32.7,0c1.2,0,2.3-0.1,3.2,1C48,321,35,321,22,321z"/>
	<path fill="#081114" d="M244.9,269c-2.8-2.3-4.1-5.6-5.7-8.6c-1.2-2.2-2.4-4.1-5.2-4.4c0.1-5.9,1.5-11.6,2.2-17.4
		c0.2-0.5,0.5-0.9,1-1.3c0.6-0.5,1.4-0.9,2.1-1.1c3.6-0.2,7.1,0.5,10.4,2.1c3.5,0.6,7.1-0.8,10.7,0.2c1.5,0.4,2-1.4,2.3-2.7
		c2.8-10.4,6.6-20.6,5-31.6c-1-6.8,2.7-11.7,6.1-16.8c0.6-1.2,1.2-2.4,1.9-3.5c3.2-5.2,4.2-10.1-0.2-15.4c-2.7-3.3-3.3-7.5-2-11.8
		c1.7-5.9-1.2-11-2.5-16.4c-1.3-7.3,0.8-14.4,0.9-21.6c0-2,0.2-3.9-0.1-5.9c-1.4-6.5-1-13.2-2.7-19.6c-0.3-1-0.8-2.5,1.3-2.2
		c3.9-0.3,9.6-0.5,8.3,4.5c-1.7,6.6,2.6,9.9,4.6,14.5c1.7,3.9,4.5,7.4,4.4,11.9c0,1.4,0.6,2.7,1.9,3.3c3.9,1.9,3.9,5.2,3.3,8.8
		c-1.7,9.7-2.6,19.3,0.9,28.9c1,2.7-0.4,5.2-0.4,7.9c-0.4,12.4-1.1,24.7,3.2,36.8c2,5.8,0.7,12.3-0.5,18c-2,9.9-1,19.9-2.6,29.7
		c-0.1,0.6,0.4,1.2,0.7,1.8c0,0-0.4,0-0.4,0l-0.4,0c-3-0.3-2.2-2.7-2.4-4.4c-0.3-3.7,0-7.5-0.2-11.3c-2.1,0.1-2,1.5-2.2,2.5
		c-2.2,13.8-9.8,25.3-16.2,37.2c-0.7,1.3-1.7,3.2-3.8,1.5c-1.2-2.5-0.7-5.2-0.7-7.8c1.9-7.9,5.7-14.9,10.1-21.6
		c3.5-5.4,5.9-11.1,7.3-17.4c0.7-3,1.3-6.2,3-8.7c-2.5,2.2-3.2-0.1-3.6-2c-1.2-5.5-1.2-11.2-1.9-16.2c-3.2,9.8-5.9,20.4-8.2,31.2
		c-1.2,5.6-2.3,5.9-6.7,2.4c-2.1,3.8-4,7.6-6,11.4c-1.8,3.4-0.2,6.5,0.6,9.7c1.4,5.4-2,13.3-6.7,15.5c-2.2-2.2-3-4.9-3-7.9
		c0.8-5.4,2-10.8,2.8-16.2c0.3-2,0.8-4.4-1.9-4.9c-2.6-0.5-3.4,1.8-3.8,3.7c-0.9,3.5-1.7,7.1-2.4,10.7
		C247,266.3,247.1,268.3,244.9,269z"/>
	<path fill="#28515B" d="M143.9,108.9c4.2-4.3,9.2-7.5,14.2-10.7c2.6,2.1,0.5,3.9-0.6,5.5c-4.5,7-8.9,14-12.9,21.2
		c-3.5,6.4-6.2,13.2-8.6,20.1c-7.6,9.9-12.3,22.1-23.5,29.1c-1.4,0.9-2.6,2.7-4.8,1.8c-1.5-2.3-0.6-4.8-0.3-7.2
		c5.3-9.8,9.7-20.1,16.1-29.4c5.7-8.3,12.1-16.2,16.6-25.3C140.8,112,143.2,111.1,143.9,108.9z"/>
	<path fill="#060A0D" d="M245,71.8c5.9,2.1,11.6,4.5,16,9.2c1.3,7.6,1.7,15.1,0,22.7c-0.9,4.1-1.4,8.4-0.4,13.3
		c1.7-4.1,2.5-7.9,4.2-11.2c0.6-1.2,1.3-2.7,2.7-2.7c1.7,0,2.6,1.5,3.1,2.8c0.7,1.8,1.5,3.7,1.3,5.8c-2.6,6.8-4.7,13.9-9.5,19.7
		c-3.6,0-5-3.2-7.5-5c-1.6-2-1.3-4.4-1.3-6.7c0.2-7-1-13.5-5.4-19.2c-1.9-2.5-3.3-5.4-4.9-8.1c-3.6-6.2-3.1-8.2,3.2-12
		c2.2-0.7,4.5-0.9,7.4-1.6c-2.3-1.1-4.3-1.9-6.1-3.1C246.5,74.9,244.3,74.3,245,71.8z"/>
	<path fill="#142225" d="M135.1,144.9c2.5-11.2,8.6-20.7,14.1-30.6c2.3-4,5.1-7.8,7.7-11.7c0.9-1.3,2.3-2.6,1.3-4.5
		c1.7-1.4,3.4-2.8,5-4.2c2.7-0.2,4.1,1.3,4.8,3.7c0.1,0.7,0,1.5-0.2,2.2c-0.5,1.6-1.1,3.1-1.9,4.6c-1.1,2.6-1.5,5.5-2.9,8
		c-6,7.1-9.2,15.5-11.9,24.2c-0.3,0.6-0.8,1.2-1.4,1.5c-3.3,3-7.2,5-11.3,6.6C137.3,145.1,136.2,145.7,135.1,144.9z"/>
	<path fill="#444954" d="M37,235c1.4-4.1,5.4-7,5.8-11.6c4.7-2.3,10-1.2,14.9-2.5c1.8-0.5,3.8-0.6,4.7-2.3c2.7-5.1,7.5-6.5,12.6-7.5
		c7.6-1.4,15-3.6,22.3-6c1.5-0.5,3-1.5,4.1,0.7c0.1,0.8-0.3,1.5-0.9,2.1c-8.4,7.8-18.5,12.8-29,17.1c-4.9,2.1-10.3,2.8-15.6,3
		c-4.5,0.2-8,1.5-10.5,5.3C42.7,234.4,40.3,237.3,37,235z"/>
	<path fill="#1A252C" d="M98.1,206.1c-7.5,2.8-15,5.3-23,6c-3.4-0.2-6.7-0.6-9.4-2.9c-0.7-0.9-1.8-1.6-1.5-3c1.9-1.2,3.8-2.4,6.4-4
		c-6.5-1.1-12.2-2.1-19.3-3.3c6.8-1.9,12.2-3.4,17.7-5c1.7,0,3.2,0.4,4.6,1.4c1.4,1.1,3.4,1.6,4,3.6c-0.2,2.8,1.8,2.8,3.6,2.8
		c3.8,0,7.5,0.9,11.3,1.3C94.5,203.3,97,203.5,98.1,206.1z"/>
	<path fill="#17292C" d="M271,112c0.4-3.5-1.4-5.9-3.6-8.4c-3.4,4.9-3.6,11-6.6,16c-3.7-3.5-2.1-7.6-1.7-11.3c0.7-8,3.1-15.8,1-24
		c-0.2-0.9,0.6-2.2,0.9-3.3c3.1,3.3,6.2,6.6,9.3,9.8c0.9,7.1,1.8,14.1,2.7,21.2C272.3,112.6,271.7,112.6,271,112z"/>
	<path fill="#18333B" d="M141,114c-4.1,9.7-10.5,17.9-17,26c-5.5,8-13.4,13.9-19.6,21.2c-0.7,0.8-0.9,0.7-2.6-0.4
		c8.6-15.5,19.8-29,31.7-41.9C136.7,118.4,137.5,114.1,141,114z"/>
	<path fill="#1C3741" d="M108,169c0,2.3,0,4.7,0,7c-0.7,2.7-3,4-4.9,5.8c-4.3,2.6-6.7,7.6-11.8,9.2c-4.1,0.2-8.1-0.2-11.9-2.1
		c-1.7-2.1,0.1-3.1,1.5-3.7c3.6-1.6,5.5-4.6,7.1-7.9c1.6,0.1,2.2-1.3,3.1-2.1c3.8-1.2,7.2-3.2,10.8-4.8
		C103.8,169.4,105.7,168.1,108,169z"/>
	<path fill="#2E586E" d="M108,169c-4.1,1.9-8.2,3.7-12.2,5.6c-1.5,0.7-2.9,1.7-4.6,0.5c3.5-4.7,7.1-9.5,10.6-14.2
		c1.2,1.3,1.6,0.1,2.1-0.6c6.2-7.3,13.1-13.8,20-20.3c0.8,2.6-1.7,3.8-2.7,5.2C115.6,152.4,114,161.9,108,169z"/>
	<path fill="#12272A" d="M88,177.2c0.8,4.2-2.3,6.2-5,8.2c-1.3,1-3.3,0.7-4.1,2.5c-0.6,0.6-1.2,0.6-1.9,0.1
		c-5-4.7-10.1-9.4-15.9-14.9c4.5,1.1,7.9,1.9,12,2.9c-2.1-2.9-5-3.8-6.7-6.6C73.6,172,80.8,174.6,88,177.2z"/>
	<path fill="#171E22" d="M245,71.8c2.6,4.1,8,4,11.7,7.7c-3.5,0.5-6.5,1.7-9.7,1.4c-3.3-0.9-4.5-3.8-6.2-6.2c-3-4.4-6.9-7-12.2-7.7
		c-3.9-0.5-7.7-2.1-11.7-2.6c-7.3-0.6-14.4,1.2-21.5,2.5c-2.1,0.6-4.2,1.8-6.3,0c1-2.4,2.8-3.6,5.2-3.8c11.6-1,23.1-3.6,34.8,0.7
		C234.8,66,240.4,67.9,245,71.8z"/>
	<path fill="#133340" d="M66,208c2.3,2.8,6.5,1.5,9,4c-4.9,1.6-9.8,3-12.2,8.5c-1.2,2.6-4.5,1.5-6.8,1.9c-4.3,0.6-8.7,1.6-13.1,1
		c0,0,0-0.1,0-0.1c-0.3-1.5-3.7-1.1-2.6-3.3c0.8-1.6,2.9-0.8,4.5-1c1-0.1,2.1,1.2,3-0.2c0.8-0.6,1.5-1.2,2.3-1.9
		c5.4-0.5,9.6-2.9,12.9-7.2C63.6,208.9,64.3,207.4,66,208z"/>
	<path fill="#33505D" d="M189.1,67c2.1,0.3,3.9-0.7,5.9-1.2c3.8,0.9,3.1,3.9,3.1,6.6c-0.4,1.6-1.4,2.6-2.8,3.3
		c-4.1,1.8-7.7,4.6-11.6,6.7c-1.6-0.3-3.1-1.6-5-0.5c-1.7,1-2.2-0.5-2.5-1.8C179.5,74.8,183.6,70.2,189.1,67z"/>
	<path fill="#345C6B" d="M37,235c2.7-0.7,5.4-1.3,8.1-2c3.2,0.7,6.6,1.2,5.8,5.9c-6.3,1.9-12.8,2.8-18.6,6.1
		c-1.6-2.8-4.8-0.9-7.4-2.6C29.1,239.8,33,237.4,37,235z"/>
	<path fill="#21383F" d="M176.1,80c0.9,0.9,1.7,2,3.1,0.4c2.2-2.6,2.9-0.1,3.7,1.4c-1.6,4.8-5.6,7.8-8.4,11.8
		c-2.5,1.5-4.4,4-7.5,4.5c-0.3-2.3-2.6-2.7-3.9-4C167.7,89.5,172.2,85.1,176.1,80z"/>
	<path fill="#345C6E" d="M77.1,188c0.6,0,1.2,0,1.9-0.1c4.3,1,8.6,2.1,13,2c0.2,1.6-1,2-2.1,2.3c-5.6,1.4-11.1,3.5-16.9,3.8
		c-1.3-0.9-3.1-0.7-4.1-2.2C71.6,191.9,74.4,189.9,77.1,188z"/>
	<path fill="#2F3E58" d="M66,208c-3.6,3.5-6,8.5-11.8,9.5c-1.6,0.3-2.8,0.1-4.2-0.5c4-4.6,8.5-8.3,14.1-10.8
		C64.7,206.8,65.4,207.4,66,208z"/>
	<path fill="#1C2D38" d="M47.7,218.9c-1.8,2.3-4.5,0.5-6.7,1.3c0.6,1,1.2,2,1.8,3.1c-4.3-1.8-8.5-3.7-12.8-5.5
		c0.1-0.4,0.2-0.7,0.3-1.1C36.2,217.4,42,218.2,47.7,218.9z"/>
	<path fill="#0E1822" d="M141,114c-2.8,1.1-3.8,5.2-7.6,4.9c3.5-3.3,7-6.6,10.5-10C144.8,111.7,141.4,112,141,114z"/>
	<path fill="#050505" d="M100.2,207.2c0.3-0.4,0.6-0.8,1-1.2c1.6-3.4,3.7-6.4,6.8-8.6c2.3-0.9,4.4-0.3,5.9,1.4
		c2.6,3,4.6,2.6,6.6-0.5c4.6-4.5,9.2-9,13.6-13.7c0.9-0.9,1.6-2.1,3.1-2.2c1.9,0.5,2.7,2,3.4,3.7c0.3,1.4,0,2.8-0.9,3.7
		c-5.3,5.7-6.2,13.3-8.7,20.2c-2.8,7.1-6.8,13.5-12,19.1c-2,0.2-2.2-2.4-4-2.6c-2.5,2.9-2.9,6.1-1.8,9.6c1.4,4.4,1.2,8.4-2.1,12
		c-1.6,1.7-1.7,3.8-1.2,6.1c0.6,2.7,0.3,5.2-0.9,7.7c-4.7,5.4-7.8,11.9-11.8,17.7c-1.1,1.6-2.2,3.1-3.7,4.5
		c0.9-15,1.6-29.8,6.5-44.2c-2.4,2.9-3,6.4-3.8,9.8c-0.7,2.9-1.8,4.3-5,4.2c-5-0.2-10-0.1-15,0c-2.1,0-2.9-0.4-2.4-2.9
		c1-5.3,1.5-10.8,2.2-16.2c-0.4-1.8,0.9-2.7,2-3.6c0.9-0.7,1.9-1.3,3-1.7c8.9-4,16.2-9.3,17.7-19.9
		C98.9,208.8,99.3,207.8,100.2,207.2z"/>
	<path fill="#6FA3BC" d="M118.9,228.9c1.7-3.1,3-6.1,6.1-8.7c2.6-2.2,2.4-7.2,5.1-10.2c2.1-1.2,4.2-1.6,6.3-0.2
		c2.2,3.3,3.3,7.2,5.1,10.6c0.6-3.9,0.8-8.1,1.9-12c3-1.8,4,1.1,5.5,2.5c2.5,2.4,3.9,5.8,7,7.6c1.8,1.1,4.2,0.9,5.7,2.7
		c1,4.3-2,7.9-2.4,11.9c-0.9,4.4-1.3,8.6,4.3,10.3c1.2,0.4,1.5,1.6,1.8,2.8c-0.2,5-0.4,10-2.5,14.6c-1.5,1.8-3.6,2.1-5.7,2.8
		c-6,1.9-12.1,3.6-18,5.5c-3.5,1.1-6.5,0.9-8.9-2.1c-3.3-3-3.8-7.9-7.2-10.8c-1.2-1.9-0.1-4.5-1.9-6.2c-0.6-1.3-1.2-2.7-1.9-4
		C117.5,240.3,114.5,234.6,118.9,228.9z"/>
	<path fill="#18333D" d="M100.2,207.2c-0.5,5-2.9,9.4-4.2,14.1c-0.5,1.7-2,2-3.2,2.8c-5.4,4-12.2,5.7-16.9,10.8
		c-0.3,0.1-0.7,0.1-1,0.2c-9.1,4-14.1,4.8-24.1,3.7c-0.3-3.6-3.9-3.9-5.8-5.9c1.2-4.6,4.6-5.8,9-6c15.1-0.6,28.1-6.8,40-15.6
		C96.1,209.9,97.9,208.2,100.2,207.2z"/>
	<path fill="#1E2F37" d="M134,304c-3.9-1.2-7.8-3.2-12-1c-3.2-5.1-7.1-9.8-8.9-15.8c-0.6-1.9-1.9-3.8-1.8-5.6
		c0.2-2.1-0.3-5.3,1.9-6.2c1.9-0.7,4.5,0.3,6.7,0.6c0.6,9.9,6.7,17.1,12.2,24.6C133,301.7,134.1,302.5,134,304z"/>
	<path fill="#162B37" d="M118.9,228.9c-2.5,5.7,1.6,11.4,0.1,17.1c-3.9,5-5.7,11.3-10,16c-0.1-3,0.4-5.9-0.7-8.8
		c-0.7-2-0.3-3.9,1.5-5.4c3.3-2.8,4.1-6.3,2.3-10.2c-2.4-5.3,0.3-9.6,2.6-14.2C117.3,224.3,116.9,227.5,118.9,228.9z"/>
	<path fill="#0E2128" d="M269,283c6.5-9.6,12.2-19.6,15.8-30.7c1-3.2,3.2-6.4,2.1-10.3c-0.3-1.2,2.1-3.3,4-3.1
		c2.1,0.2,0.9,2.4,1.1,3.6c0.7,4.8-1.3,9.8,1.2,14.5c0.4,4.6-0.9,8.8-3.5,12.6c-5.6,8.2-9.1,17.5-12.2,26.7
		c-3.4,10.1-10.1,12.3-18.9,12.7c-0.5,0-1,0-1.5,0c-0.2-0.5-0.4-1-0.1-1.4C262.6,300.2,265.2,291.3,269,283z"/>
	<path fill="#173E4F" d="M269,283c-1.3,7.9-4.1,15.1-9,21.5c-1.1,1.4-2,3-3,4.5c-1.9,0.7-2,3.4-4,4c-0.1-6.5,0.5-12.8,5.6-17.8
		c1.4-1.4,1.5-4,1.5-6.2c-0.7-6.3,3.4-10.4,6.6-15c0.5-0.7,1.5-0.7,2.2,0C269,277,269,280,269,283z"/>
	<path fill="#040404" d="M237,238c0,6.1-0.2,12.3-3,18c-2.2,3.1-3.9,6.8-6.8,9c-3.4,2.7-4.9,7.5-9.7,8.7c-4.8,1.1-9.6,2.4-14.3,3.7
		c-1.7,0.5-1.9-0.4-2.4-1.6c-0.8-1.6-1.8-3.1-2.8-4.7c0-1.4,0.9-2.2,1.9-2.9c8-5.3,16-10.7,23.6-16.5c3.4-2.6,7.1-5.2,7.1-10.6
		C230.7,237.9,233.7,236.7,237,238z"/>
	<path fill="#122F38" d="M254,271c-0.5,3,1.6,5.2,2.1,8c2.8,3.8,0.5,7-1.4,10.2c-3.2-2.6-7.3-3.6-10.3-6.6c-1.9-1.9-2.8,0.7-4.1,1.3
		c0,0-0.4,0.2-0.4,0.2c-0.5,0.4-1.3,0.7-1.6,1.2c-7.4,12.5-21.5,15.1-32.5,22.4c12.6-13,24.3-27,39.1-37.7
		C248,269.4,250.8,271.4,254,271z"/>
	<path fill="#040404" d="M198.9,288.1c0.5-7.5,5.3-10.4,12-11.1c2.9-0.3,6.2-3.7,8.2-1.2c1.4,1.8-2.4,4.5-3.6,7
		c-2.8,5.7-7.7,9.9-11.2,15.1c-0.7,1.1-2,1-3.2,1C197.5,295.9,197.5,292.2,198.9,288.1z"/>
	<path fill="#5A7374" d="M184.1,298.4c-2.1-4.6-1.1-9.8-3.1-14.4c-2.1-3.6-2.1-7.5-1.8-11.4c4.2-3.8,9.4-5.7,14.7-7.1
		c2.7,2.9,0.1,5.2-0.9,7.7c-3.6,6.3-4.4,13.5-7.1,20.2C185.4,295,184.8,296.7,184.1,298.4z"/>
	<path fill="#1A464E" d="M254,271c-3.4,2.8-6.1-0.1-9.1-1.1c0-0.3,0.1-0.6,0-0.9c1-4.6,2-9.3,3.1-13.9c0.4-1.7,0.8-3.6,1.7-5.1
		c1.1-1.9,3-2.7,5.1-1.4c1.5,1,3.2,1.6,2.5,4.5C255.8,258.9,255,265,254,271z"/>
	<path fill="#2D5A6D" d="M193.1,273.2c-1-2.6,1.7-4.7,0.9-7.3c-0.2-0.9,0.3-1.3,1-1.8c2.7-1.2,5-2.9,7.6-4.3c1.4-0.7,2.7-2,4.5-1
		c0.1,5-4.2,7.2-6.9,10.3c-0.7,0.7-1.4,1.4-2.1,2.1C196.4,271.9,194.7,272.5,193.1,273.2z"/>
	<path fill="#283C3F" d="M198.9,288.1c0.1,3.7,0.8,7.4,2.2,10.9c-1.5,2.9-4.7,3.8-7.3,5.6C195.8,299.1,195.4,293,198.9,288.1z"/>
	<path fill="#397A97" d="M180,272.1c0.2,4,1.5,7.9,1,11.9c-3.7,4.3-4.3,10-6.8,14.9c-0.8,1.7-1.5,3.2-3.2,4.1
		c-1.8-12.3-3.7-24.6-4.1-37c1.9-3.9,5.7-2.6,8.7-3.3c2.9,0.1,4.5,1.6,5,4.4C180.7,268.8,181.2,270.5,180,272.1z"/>
	<path fill="#232222" d="M175.9,263.9c-3.1,0.4-6.1,0.7-9,2.1c-6.2-0.1-11.7,2.7-17.3,4.9c-4.1,1.4-8.8,1.4-11.9,5.2
		c-2.3,0.2-4.9,1.1-5-2.7c-0.6,0.2-0.7,1.2-1.6,0.8c-1.7-2.5-2.9-5-0.9-7.9c3.3,3.3,6.9,2.3,10.7,1c6.9-2.3,14-4.3,21-6.4
		c4.8-4.2,11-4.3,16.6-5.9c3.3-0.1,5.7,1.2,5.5,4.8c-0.3,3.8-3,4.3-6.1,3.8C177.2,263.4,176.5,263.6,175.9,263.9z"/>
	<path fill="#A3B4BD" d="M130.2,266.2c-0.2,2.8,0.7,5.4,1.7,7.9c0.9,8.4,6.1,15.5,7.1,23.8c0,0.4-0.1,0.8-0.1,1.2
		c-10.6-8.9-14.5-20.8-15.7-34c-0.3-3-0.3-5.9-0.5-8.9c0.4-0.5,0.3-2.6,1.5-0.6C126.3,259.1,128.2,262.6,130.2,266.2z"/>
	<path fill="#080808" d="M139.1,297.9c-2.8-7.8-8.6-14.7-7.1-23.8c2.2,0,3.9,1.3,5.8,1.9c1.2,6.4,2.7,12.8,2.5,19.4
		C140.2,296.3,141.1,297.9,139.1,297.9z"/>
	<path fill="#132730" d="M254.3,289c0.7-3.3,2.4-6.5,1.8-10.1c4-5.8,7.7-11.7,4-19.1c-1.2-2.5-0.6-4.6,0.8-6.9
		c2.5-4.3,4.6-8.8,7.2-13.6c1.2,1.9,2.2,3.4,3.9,5.9c3.4-14.2,6.3-27.7,11.6-40.7c0.8,7.5,1.6,15.1,2.4,22.7
		c2.2-0.4,1.6-3.1,3.7-3.5c-3,12-5.7,24-13.1,34.2c-3.6,4.9-5.4,10.6-7.6,16.2c-4.9,3.8-6.8,9.4-8.8,15c-2.1,0-2.3,2.6-4.1,3
		c-2.2-2.2-3.3,2-5.3,0.9C250.8,290.6,252.1,289.4,254.3,289z"/>
	<path fill="#55808E" d="M254.3,289c-1.2,1.3-2.3,2.6-3.5,3.8c-4.4-2-8.2-4.6-10.5-9c-0.6-2.4,1.9-2.8,2.6-4.7c3,3,5.1,6.7,10.1,6.2
		C255,285.1,253.8,287.8,254.3,289z"/>
	<path fill="#122D33" d="M275,188c-7.6,7.2-5.9,16.6-6,25.5c-0.1,9-4.2,16.9-5.9,25.5c-0.5,2.5-2.1,1.6-3.4,1.1
		c-3.1-1.3-6.1-1.5-8.9,0.7c-0.4,0.3-1.1,1.2-1.4,0.1c-0.2-0.5,0.4-1.2,0.6-1.8c-0.5-1.6-0.3-3.3,0.1-4.9c3.4-14.5,8-28.5,13.1-42.5
		C266.2,187.3,270.3,186.8,275,188z"/>
	<path fill="#112D36" d="M271,112c0.7,0,1.3,0,2,0c1.5,4.7,0.1,9.5-0.3,14.2c-0.5,5-0.6,9.9-0.6,14.8c0.5,0.8,0.4,1.6,0.2,2.4
		c-2.9,12.5-2,25.6-5.8,37.9c-0.3,1-0.6,1.9-1.3,2.6c-3.9,0.3-4-2.6-4.3-5.2c-0.4-4.1,0.3-8.3-0.5-12.3c-0.5,1.5,1.5,3.6-0.9,4.8
		c-0.5,0.3-1.1-1.8-1.6,0.2c-0.2,0.9-1.4,1.2-2.5,0.9c-2.1-1.6-1.1-3.6-0.6-5.4c1.4-4.9,2.5-9.9,3.8-14.8c0-0.5,0.1-1,0.2-1.5
		c0.4-1.8,0.8-3.5,1.7-5.1c1.9-3.5,2.6-7,1-10.8c-0.5-1.2-0.6-2.6,0.6-3.7C265,124.7,268,118.3,271,112z"/>
	<path fill="#16353F" d="M200.1,269.1c2.3-3.4,4.7-6.8,7-10.2c0.3-2.1,1.8-3.5,3.2-4.9c3-3,4.3-6.3,3-10.5
		c5.5-7.3,9.7-15.4,13.8-23.4c0.6-1.1,1.2-2.4,2.8-2.4c2.8,2.8,3.9,6.5,5.5,9.9c0.6,1.4,1.1,2.7,2.2,3.8c0.8,2.1,1.8,4.3,0.3,6.5
		c-0.3,0-0.6,0-1,0.1c-2.4,1.2-7-0.1-4.8,5.8c0.7,1.9-3,4.9-5.3,6.7C218.4,257.3,209.6,263.8,200.1,269.1z"/>
	<path fill="#101E1F" d="M264,184c1.9-6.5,4.4-12.9,3.9-19.7c-0.6-8.2,2.9-15.5,4.1-23.3c2.6,5.6,4.5,11.2,2.3,17.5
		c-1.5,4.3,0.7,8.2,3.1,11c3.7,4.3,3.2,8,0.6,12.3c-1.2,2-2.1,4.1-3.1,6.2c-3.6,1.5-8.3-0.1-10.9,4c-0.8-0.2-1.4-0.7-1.7-1.5
		C261.9,188.1,262.3,185.9,264,184z"/>
	<path fill="#070709" d="M263,191c0.3,0.3,0.7,0.7,1,1c-4.9,15.6-10,31.1-14,47c-3.7-0.7-7.3-1.3-11-2c-0.4-3.2,2.2-4.8,3.7-7
		c1.8-2.5,4.1-4.7,5.5-7.5c1.7-4.4,3.4-8.9,5-13.3c1.1-1.8,2.5-3.4,3-5.5C258.5,199.5,258.7,194.1,263,191z"/>
	<path fill="#0C1D24" d="M249,223.1c-2.3,5.4-7.3,8.8-10,13.9c-0.4,0.3-0.7,0.6-1.1,1c-0.3-2.3-0.7-4.7-1-7c-0.9-1-1-2.1-0.5-3.2
		c2.2-4.3,3.2-9.2,6.3-13.1C247,215.5,248.4,217.4,249,223.1z"/>
	<path fill="#204D69" d="M103,181c1.3-2,3-3.7,5-5c11.3-5.9,16.7-17.1,23.9-26.7c1.1-1.5,2.1-2.9,3.2-4.4c1-0.3,2-0.6,3-0.9
		c2.9,4.4,2.7,8.7-0.6,12.8c-4.5,5.6-8.6,11.4-13.6,16.6c-5.8,4.1-10.9,9.4-17.8,11.9C104.3,184.5,102.5,183.5,103,181z"/>
	<path fill="#182528" d="M217.9,63.1c1.6,0.4,3.1,1.1,4.7,1.3c11.4,0.8,19,7.1,24.3,16.7c-6.1,5-6.1,4.9-2,11.5
		c2.9,4.8,5.9,9.5,8.5,14.5c1.6,3,1.2,6.5,1.5,9.9c0.3,3-1,6.3,0.9,9.1c0.7,2.4,0.6,4.8-0.7,7c-2.4,1-4.8,0.2-7.1-0.3
		c-3.5-2.3-8.3-2.2-10.9-6.1c-2.2-4.5-1.1-9.5-2-14.2c-0.9-4.3-1.8-8.7-2.6-13.1c-1.6-8.2-7.8-13.5-12.4-19.9
		c-1.2-1.7-3.2-2.9-3.7-5.1C216.8,70.6,215.7,66.6,217.9,63.1z"/>
	<path fill="#111C1E" d="M255,133c0.1-2.4-0.4-4.8,1-7c2,1.7,4,3.3,6,5c3.4,7.1,0.5,13.5-2,19.9c-1.2,0.3-2.2-0.2-2.4-1.2
		C256.3,144.3,253.8,138.9,255,133z"/>
	<path fill="#79B2C9" d="M150.1,137c2.1-9.3,5.8-17.7,12-25c0.9-0.7,1.9-1.1,3-1.3c2.4,0,4.8-0.5,6.9,1.1c1.1,1.8,0.1,3.3-1.2,4.3
		c-3.1,2.5-1.5,3.6,0.9,5.4c1.8,1.4,5.3,1.3,5.1,4.8c-1.2,0.9-2.6,0.8-4,1c-2.9,1.4-1.1,2.7,0.1,3.9c1.9,1.7,4.3,3,4.5,6
		c-1.6,3.3-4.5,5-7.5,6.7c-4.2,1.2-7.6-1.3-11.4-2.2C155.5,140.6,151.3,141.7,150.1,137z"/>
	<path fill="#080B0E" d="M123.1,173.1c3.6-4.5,6.9-9.3,10.8-13.5c4.4-4.6,6-9.6,4.2-15.7c3.7-1.9,7.4-3.8,11.1-5.8
		c1.6,2.5,0.3,4.8-0.4,7.1c-1.3,4.4-2.4,8.9-2.8,13.5c-1.5,4-1.2,8.4-3.5,12.2c-0.9,0.9-2,1.2-3.2,1.2c-3.5,0-5.5,1.8-6.6,5
		C127.1,177.9,124.4,176.8,123.1,173.1z"/>
	<path fill="#92B7CA" d="M144.8,158.8c-0.6-7.3,3.3-13.6,4.3-20.5c0.3-0.4,0.6-0.8,0.9-1.2c2.1,3.3,6.3,2,9,4.1
		c0.7,4.6-3.7,5.8-5.6,8.6c-2.5,2.4-4.5,5.2-6.1,8.2c-0.5,1-0.8,2.7-2.7,1.7c-0.1,0-0.1-0.3-0.1-0.4
		C144.7,159.1,144.8,158.9,144.8,158.8z"/>
	<path fill="#375E68" d="M167.1,98.1c1.8-2.3,4.3-3.7,6.8-5.1c4.3-0.9,8.6-3.9,12.9-0.1c0.3,2.6,2.4,5.7-1.7,7.2
		c-1.9,0.4-3.9,0.3-5.9,0.3c-2.5,0-4.9,0.8-7.3,1.2c-2,0.4-4,0.7-5-1.8C167,99.3,167,98.7,167.1,98.1z"/>
	<path fill="#609DBF" d="M166.9,99.8c4.2,2.5,8-1.5,12.1-0.9c2.6,2.5,3.4,5.5,2.9,9c-0.6,1.6-1.6,2.8-3.6,2.5
		c-3.4-3.3-7-5.8-12.2-4.4c-1.5,0.4-2-0.7-1.2-2.1C165.6,102.6,166.3,101.2,166.9,99.8z"/>
	<path fill="#537786" d="M165,104c2.2,1.8,4.7,0.1,7.2,0.8c3.1,0.9,5.1,2.2,5.9,5.2c0.3,1.4-0.7,1.5-1.7,1.7
		c-2.1-0.3-3.7-1.9-5.6-2.7c-1.6-0.7-3-0.5-4,1.1c-0.4,0.8-1.1,1.3-1.7,2c-1,0-2,0-3,0C163,109.4,164,106.7,165,104z"/>
	<path fill="#0C171A" d="M123.1,173.1c1,1.9,2.6,3.4,4.8,2.8c1.7-0.5,2.8,0.8,4.3,0.8c2.5,1.4,4.9,2.9,4.7,6.3
		c-4.8,5.8-10.2,11-15.7,16c-1.7,0.8-2.3-0.6-3.2-1.5c-4.7-4.6-5.5-4.6-9.9,0.4c-2.3,2.7-3.7,6.1-6.9,8.1c-1.1-1.5-2.1-0.3-3.1,0.1
		c-5.5-2.6-11.4-2.7-17.3-3.1c-4.3-0.3-4.8-0.9-3.7-4c5.9-1.8,11.9-3.1,17.9-4.5c4-0.9,7.2-2.4,8.4-6.7c0.4-1.3,1.2-2.4,2.7-2.7
		C111.7,181.1,117.4,177.1,123.1,173.1z"/>
	<path fill="#2F6487" d="M106,185.1c-1.7,7.5-6.8,10.7-14.1,11.5c-5,0.5-9.6,3.6-14.9,2.5c-1.4-1-2.7-1.9-4.1-2.9
		c5.2-3,11.3-3.1,16.9-5c0.7-0.3,1.4-0.7,2.1-1c3.9-2.7,6.4-7.2,11-9C104,182.3,105,183.7,106,185.1z"/>
	<path fill="#233B3F" d="M217.9,63.1c-0.2,4,0.9,8.1-0.9,11.9c-3.6,4.2-7.7,2.2-11.8,1.2c-2.6-1.3-5.8-1.1-8.2-3.2
		c0-2.6,0.2-5.2-2-7.2C202.5,63.9,210.1,62.7,217.9,63.1z"/>
	<path fill="#5997BC" d="M197,73c2.7,0.5,5.6,0.3,8.1,1.8c1.1,1.5,1.9,3.1,2.5,4.7c3.9,9.5,3.4,11.1-5.2,17
		c-3.2,1.6-6.3,3.4-10.1,3.3c-3.7-0.8-5.1-3.8-6.2-6.9c-2.4-2.5-4.8,0.5-7.2-0.1c-1.7-0.4-3.4,1.2-5,0c3-3.7,5.4-7.9,9-11.2
		C187,77.8,192.5,76.2,197,73z"/>
	<path fill="#9CC6D3" d="M136.9,183c-1.6-2.1-3.1-4.2-4.7-6.3c0-7.6,5.7-5.2,9.8-5.7c0.3,0.3,0.5,0.8,0.6,1.2
		c-0.1,1-0.6,1.8-1.2,2.5c-1.2,1.4-1.7,3.2-0.3,4.4c4.1,3.7,5.1,9.9,10.8,12.2c0.6,0.2,0.9,0.9,1.1,1.6c0.6,3.1,0.8,6.2-0.1,9.3
		c-1.4,2-2.5,0.6-3.5-0.4c-1.5-1.5-2.7-3.2-3.8-5c-0.7-1-1.2-2.1-1.7-3.1c-1.3-2.5-3-4.9-3.9-7.6C138.9,185.1,137.9,184.1,136.9,183
		z"/>
	<path fill="#7089A0" d="M139.9,186.1c2.1,2.1,3.6,4.5,5,7.1c-1.3,2.6-0.6,5.3-0.8,8c-0.3,0.3-0.7,0.6-1.1,0.8c-4.8,0.5-4.8,5.2-7,8
		c-2-0.4-3.9,1-5.9,0.1c1.8-6.9,2.7-14.1,7.8-19.7C138.9,189.2,140.2,188,139.9,186.1z"/>
	<path fill="#146F58" d="M108,197.9c2.2-6.4,5.5-7.1,10-2.1c1,1.1,2,2.1,3.1,3.2c-1.9,4-4.2,5.6-7.4,1.1
		C112.4,198,110.3,197.7,108,197.9z"/>
	<path fill="#356C7F" d="M178,256c-5.4,1.6-10.7,3.2-16.1,4.9c0.7-4.9,1.5-9.9,2.2-14.8c0.3-0.4,0.2-1.1,0.5-1.4
		c4.1-4.1,5.2-9.4,6.3-14.8c4.3-0.5,7.6,1.2,10,4.8c1.1,5.2,0.6,10.4,0.4,15.6C181.2,252.7,180.3,254.8,178,256z"/>
	<path fill="#408891" d="M171,230c1.6,7-1.9,11.8-6.9,16c-0.3-0.6-0.5-1.3-0.9-1.6c-1.5-1.1-4.5,0.8-5-1.9c-0.5-3.1-2.5-6.3-0.2-9.5
		c3.6-3.3,8.2-5.5,11.4-9.2C171.9,225.4,171.3,227.7,171,230z"/>
	<path fill="#87BAD2" d="M161,221c-2.2,0-4.6,0.5-5.9-2.1c-2.2-3.6-3.6-7.4-3.7-11.6c2-3.1,5-4.3,8.5-4.7c3.6,2.5,6.1,5.8,6.8,10.3
		C164.9,215.8,165.1,219.9,161,221z"/>
	<path fill="#508CA3" d="M161,221c1.7-2.7,3.3-5.3,5-8c4.2,2,5.2,5.7,3.1,11c-1.4,5.8-6.6,6.9-11,9.1C159,229,160,225,161,221z"/>
	<path fill="#8BB3CC" d="M136,210c0.4-4.4,0.9-8.7,6.8-8.8c2,2,2.8,4.2,1.3,6.8c0.1,4.9-0.8,9.7-1.9,15.4
		C139,218.6,137,214.5,136,210z"/>
	<path fill="#559BAD" d="M144,208c-0.4-2.3-0.8-4.6-1.3-6.8c0.5-0.1,1-0.2,1.4-0.3c0.8-1.6,0.1-3.7,2-4.8c1.9,2.3,3.3,5.1,5.8,7
		c1.3,1.3,0.8,2.7,0.1,4.1c0.7,4,3,7.7,3,11.9c-3.4-0.4-4.1-3.8-6-5.8C147.5,211.3,146.1,209.3,144,208z"/>
	<path fill="#08171F" d="M180,272.1c0.3-1.3-1.5-2.7,0.1-3.9c6.7-6.8,14.5-12.1,22.8-16.6c2.2,0.7,1.1,2.1,0.4,3.1
		c-2.6,3.6-4.8,7.6-8.4,10.4c-0.3,0.3-0.7,0.6-1,0.9C189.3,267.8,185.1,271,180,272.1z"/>
	<path fill="#1D3F4A" d="M195,265c1.9-4.8,6.5-7.9,8-13c-0.4-2.1,1.2-2.6,2.5-3.4c3.2-1,4.4-5.4,8.5-4.7c4.1,7.9-3.5,10.5-6.8,15.1
		C202.6,260,199.6,264.2,195,265z"/>
	<path fill="#3A5D65" d="M205.8,249c-0.9,1-1.9,2-2.8,3c-7.6,5.4-15.3,10.8-22.9,16.2c-1.1-1.7-0.8-4.8-4.2-4.3
		c0.9-0.3,1.8-0.8,2.7-0.9c2.5-0.3,4.5-1,4.4-4.1c-0.1-3.6-2.8-2.8-5-3c3.4-5,1.6-10.6,2-16c0.2-2,0-4,0-6c0.3-0.1,0.5-0.2,0.8-0.4
		c0.8-0.2,1.7,0,2.5,0c7.2,0.7,14.4,1.8,21.6,3c1.9,0.3,3.6,0.7,4.1,2.9C209.1,243.1,208.8,246.5,205.8,249z"/>
	<path fill="#183641" d="M260,152c-1.5,5.7-3,11.3-4.5,17c-0.3,1.2-0.7,2.2,0.5,3c1.3,2.9-0.8,4.2-2.6,5.6c-2.5,0.9-4.9,1.8-7.5,2.3
		c-5.1,1.1-5.5,0.8-6.2-4.5c-0.1-0.7-0.2-1.3-0.4-1.9c-0.3-1.6-1.7-2.9-1.5-4.7c1.3-2.9,1.5-6.1,2.8-9
		C246.6,156.1,252.8,152.9,260,152z"/>
	<path fill="#0E262D" d="M260,152c-6.3,2.7-12.6,5.4-18.9,8.1c-2.2-2.4-0.9-5.1-0.1-7.5c1.9-5.8,3.5-11.6,4.9-17.6
		c0.3-1.3,0.8-2.5,2.2-3c2.4,0.1,4.8-0.4,7,1c1.1,4.9,2.7,9.8,3,14.8c0.1,1.5,0.6,2.5,2,3.1C260,151.3,260,151.6,260,152z"/>
	<path fill="#143741" d="M263,191c-2,4.3-4,8.7-6,13c-3.1,0.9-5.7-0.1-7.8-2.4c-1-1.7-1.6-3.3,0-5c4.4-3.2,5.5-7.9,6.4-12.9
		c0.8-4.3,0.7-8.9,3.4-12.7c2.3-2.3-1.4-7,3-8.2c-0.1,7.1-1.5,14.3,2,21.2C263.7,186.4,263.4,188.7,263,191z"/>
	<path fill="#0B1D23" d="M259,171c-1.1,6.4-1.8,12.9-3.4,19.3c-0.7,2.8-2.2,5.9-5.7,6.7c-1.5-1.7-1.4-3.7-0.9-5.5
		c1.3-4.8,0.8-10.1,4-14.4c1.2-1.6,2.7-2.9,2.9-5C257.3,172.4,257.2,168.9,259,171z"/>
	<path fill="#26444F" d="M253.1,177c-0.6,6.7-3.1,13.1-3.2,19.9c-1.6,1.4-0.5,2.7,0.1,3.9c-1.1,1.6-0.6,3.5-1.4,5.2
		c-1.6,3.2-1.9,7.1-5.6,8.9c-1.3,5.6-5.1,10.2-6.1,15.9c-0.6,0-1.7,0.1-1.7,0c-0.6-4.8-4.4-8.4-5.3-13c-1.4-2.1-0.3-4.2,0.2-6.2
		c2.8-10.8,5.7-21.5,8.4-32.4c0.1-2.2-0.4-4.6,1.6-6.4c2.1,7.1,2.1,7.1,9.8,4.5C251,177.2,251.8,175.9,253.1,177z"/>
	<path fill="#060708" d="M240,180.1c-3.3,12.6-6.7,25.2-10,37.8c-2.7,4.7-5.5,9.4-7.9,14.2c-2.1,4.3-4.6,8.3-8.1,11.7
		c-3.3,0.7-4.5,4.9-8.2,5.1c0.8-2.9,1.6-5.9,2.4-8.8c0.4-4.4-0.1-8.9,1.5-13.1c2.2-4.4,4.5-8.8,6.6-13.3
		c8.4-10.1,14.3-21.7,19.4-33.7C237.1,178.9,238.6,178.8,240,180.1z"/>
	<path fill="#13303A" d="M243.1,215c1.6-3,3.3-6,4.9-9c2.8-0.4,4.5,1.2,6.1,3.2c-1,4.9-2.9,9.4-5.1,13.9
		C247.3,220.2,246.6,216.5,243.1,215z"/>
	<path fill="#199CA5" d="M254.1,209.2c-2.5-0.1-4-2.1-6.1-3.2c0.2-1.9-1-4.3,2-5.1c1.7,2.4,4.9,1.7,7,3.1
		C257.1,206.4,256.4,208.2,254.1,209.2z"/>
	<path fill="#3F87A0" d="M202,96.1c8.2-4.8,7.4-11.2,3.5-18.3c-0.4-0.8-0.3-1.9-0.4-2.9c4,1.8,7.9,1.5,11.9,0.1
		c11.3,9.8,18.3,21.7,19.1,37c1,3.3-1.9,4.5-3.8,5.6c-5.5,3.2-7,7.9-6.3,13.8c0.2,2.1,0.7,4.3-1.4,5.9c-3.3-1-5.2-3.6-7.3-6
		c-1.2-2.2-2-4.5-1.6-7c1.7-2.1,5.2-1.2,6.5-4c-0.9-5.5-3.3-9.9-8.1-13.1c-3.3-2.2-6.5-4.7-9.6-7.2C203.4,98.9,201.5,98.2,202,96.1z
		"/>
	<path fill="#256070" d="M224,137c2.7-3.4,0.1-7.3,0.7-11c0.5-3.4,1.5-5.6,4.3-7.6c2.6-1.9,5.9-3.1,7.1-6.5c0.6,5,1.3,10.1,1.9,15.1
		c0.7,1,0.8,2.2,0.5,3.3c-1.5,6.2-2,12.6-2.6,18.9c-1.9,2.8-3.2,6.2-7.1,7c-3-2.2-3.2-5.7-4-8.8c-0.8-3-2-6-2.4-9.1
		C222.6,137.4,223,136.8,224,137z"/>
	<path fill="#0D1215" d="M235,150c-0.1-7.8,0.7-15.5,3.1-23c3,2.3,7.4,1.7,9.9,5c-1.7,9.5-6,18.3-6.9,28.1c-0.7,3.1,0.4,6.9-3.2,9.1
		c-1.8,1.2-3.2,0.5-4.1-1.1c-0.8-1.4,0.2-2.5,1.3-3.3c2.3-1.8,3-3.5-0.1-5.2C233.2,156.3,234.8,153.1,235,150z"/>
	<path fill="#2C7181" d="M172,126.1c1.7,0,3.4-0.1,5.1-0.1c0.6-1.2-0.4-2.2-0.3-3.4c-0.2-3.2,0.2-5.6,3.8-7.1c3.4-1.4,4.4-5.7,7.4-8
		c3.9-0.4,5.2,2.5,6.6,5.3c0.4,1.8-0.3,3.5-0.8,5.2c-1.9,4.7-4.1,9.3-6.1,14c-0.7,1.1-1.6,2-2.7,2.7c-2.1,0.8-3.9,2.7-6.5,1.5
		c-0.3-0.2-0.6-0.4-0.7-0.7C176.9,131.8,175.6,128.2,172,126.1z"/>
	<path fill="#48ABA9" d="M152.9,149c1.7-2.9,5.2-4.4,6.2-7.9c3.8-0.4,6.9,3.3,10.9,2c3.1,3.2,5,7.1,7.9,10.5
		c0.7,1.6,3.5,2.6,1.3,4.9c-8.3-0.9-16.2-3.2-23.9-6.2C154,151.7,152.6,150.9,152.9,149z"/>
	<path fill="#468DA5" d="M177,154c-2.7-3.4-6-6.4-7-10.9c2.4-2.1,4.8-4.2,7.2-6.3c0.5-0.6,1.1-0.8,1.8-0.8c2.2-0.1,3.5-2.5,5.9-2.1
		c2.4,4.4-0.2,8.1-1.8,11.9c-1.1,2.7-3,5-4.9,7.3C177.9,153.5,177.5,153.8,177,154z"/>
	<path fill="#4BA6B3" d="M177.9,123c-0.1,1.1,0.3,2.3-0.9,3c-0.8-0.5-1.7-0.9-2.5-1.4c-2.6-1.7-6.6-2.8-7.5-5.2
		c-0.9-2.4,3.8-3.7,5-6.3c0.6-0.7,1.4-0.8,2.2-0.5c2.5,1.3,3.6,3.2,3.3,6.1C177.4,120.1,177.1,121.7,177.9,123z"/>
	<path fill="#114144" d="M179,136c-0.4,0.7-1.1,0.9-1.8,0.8c-2.1-1.9-4.1-3.8-6.2-5.6c-2.6-2.2-1.7-3.8,0.9-5
		C179.5,125.7,177.4,132.2,179,136z"/>
	<path fill="#B0C0C5" d="M173.8,112.9c-0.6,0.1-1.2,0.1-1.8,0.2c-2-2.1-4.6-0.6-6.9-1.1c0-0.8,0-1.6,0.9-2.1
		c1.7-0.6,3.3-1.5,5.1-1.9c2.3-0.1,3.4,1.9,4.9,3C176.3,112.8,175,112.8,173.8,112.9z"/>
	<path fill="#156C6F" d="M166.9,128.7c0,1.1-0.2,2.3-1.5,1.9c-1.3-0.4-3.1-0.8-3.2-2.6c-0.1-1.8,1.6-2.8,2.9-2.7
		C166.9,125.4,166.5,127.5,166.9,128.7z"/>
	<path fill="#61A4B8" d="M152.9,149c3.7,4.1,9.1,4,13.8,5.7c4.3,1.5,8.8,2.3,13.3,3.3c0.2,0.2,0.3,0.4,0.5,0.6
		c-0.4,7.2-2.9,13.7-6.3,20c-5.1,2.7-10.8,3.1-16.3,4.2c-2.3-0.1-4.5-0.7-6.8-1.1c-7.2-1.5-8.4-2.7-9.2-9.7c-0.1-0.3,0-0.6,0-0.9
		c0.9-4.1,1.2-8.3,2.9-12.3C148.2,156,148.9,151.1,152.9,149z"/>
	<path fill="#69A6BF" d="M194,113c-2-1.6-2.7-4.8-5.9-4.9c-1.3,1-2.8,1.2-4.3,0.6c-2.1-1.2-1.4-2.8-0.3-4.1c1.4-1.6,1.7-3.4,1.6-5.4
		c2.6-1.7,0.1-4.3,1.1-6.2c2.4,1.7,3.1,5.1,6.2,6.1c4,2.3,9,3,12.1,6.9c0.2,0.7,0.2,1.5-0.2,2.2C200.9,109.9,198.6,114,194,113z"/>
	<path fill="#8CBACA" d="M185,99.3c2.1,1.3,2.5,2.8,0.5,4.7c-1.2,1.1-2.6,2.1-2.6,4c-0.6,0.6-1.3,0.7-2,0c0.4-3.2-1.5-5.9-2-9
		C181,99.1,183,99.2,185,99.3z"/>
	<path fill="#358895" d="M181,108c0.7,0,1.3,0,2,0c1.7,0.1,3.4,0.1,5.1,0.2c-2.5,3.7-4,8.1-9,9.7c-2.3,0.7-0.6,3.5-1.1,5.2
		c-1.5-3.3-0.5-7.7-4.1-10.1c0.7-0.6,1.5-1.2,2.2-1.9c0.9-0.1,1.6-0.3,2-1.1C179.5,110,180.5,109.2,181,108z"/>
	<path fill="#131A1B" d="M171.1,108c-1.4,1.4-2.3,4-5.1,1.9C166.3,105.5,168.5,106.4,171.1,108z"/>
	<path fill="#2E555D" d="M204,106.2c-3.6-2.8-8.8-2.9-11.6-7c3.2-1,6.4-2.1,9.6-3.1c3.3,3.5,7.3,6.2,11.3,8.7
		c6.2,3.9,9.3,9.5,10.7,16.3c-0.7,0.3-1.4,0.2-1.9-0.2C216,116,209.7,111.4,204,106.2z"/>
	<path fill="#67A0BC" d="M152.1,207.1c0-1.4-0.1-2.7-0.1-4.1c0-3.6,0-7.3-0.1-10.9c0.7-1.9,2.3-2.2,4-2.5c3.7-0.1,4,4.8,7.5,5.1
		c0.5,0.1,0.8,0.3,1.1,0.7c0.7,1.5,1.1,3,0.8,4.7c-1.4,1.7-3,2.9-5.2,3C157.4,204.3,154.7,205.7,152.1,207.1z"/>
	<path fill="#5A94AE" d="M156.1,189.8c-0.9,1.6-2.9,1.3-4.1,2.3c-3.4-0.8-6.3-1.6-6.9-6.2c-0.3-2.1-3.2-4-5-5.8
		c-2.6-2.5-2-4.5,0.9-6.1c1.3,0.3,1.7,1.4,2.2,2.4c1.2,2.7,2.9,4.5,6,5.1c2.2,0.4,4.1,1.9,5.5,3.8
		C155.5,186.7,157.2,187.8,156.1,189.8z"/>
	<path fill="#52747D" d="M154,186c-1.3-1-2.4-2.5-3.8-2.8c-5-1.3-7.4-4.9-9.2-9.2c0.3-0.7,0.7-1.3,1-2c0.3,0.4,0.8,0.7,0.9,1.1
		c1.2,4.5,3.4,7.4,8.7,7.4c2.1,0,4.6,0.1,6.5,1.6c1,1.4,0.2,2.5-0.4,3.6c-0.3,0.3-0.7,0.6-1.1,0.7C155.6,186.5,154.8,186,154,186z"
		/>
	<path fill="#131010" d="M146.2,196c-0.9,1.5,1.4,4.4-2,4.8c-3.3-2.9-1.5-5.3,0.7-7.6C145.3,194.1,145.8,195.1,146.2,196z"/>
	<path fill="#2F6173" d="M160.1,203c1.3-1.5,3-2.5,4.9-3.2c0.5-0.2,0.9-0.1,1.3,0.1c2.7,2.5,3.5,6.4,6.9,8.3
		c3.2,7,8.6,13.1,8.1,21.5c-0.1,1.6,0.6,3.4-1.4,4.4c0,0,0,0,0,0c-3-1.3-6-2.7-9-4c-2.1-1.5,0-4.5-2-6c-0.2-3.9,0.3-8-3.1-11
		C164.8,209.2,162.1,206.3,160.1,203z"/>
	<path fill="#32545D" d="M180,234c0.4-5.6,0.1-11-3-16c-1.9-3.2-3.3-6.7-5-10c-1.8-2.5-2.3-5.3-2-8.4c1-2.4,1.5-5.1,4.6-5.8
		c0.4,0.3,0.7,0.6,0.9,1.1c0.9,4.8,2.3,9.6,1.6,15.3c4.1-1.6,6.2-4.1,8.7-6.1c4.2-3.3,5.5-3.3,8.6,0.9c3.2,4.2,7.5,7.6,9.1,12.9
		c-0.2,2.3-2.2,3.2-3.7,4.4c-5.7,4.5-11.9,8.5-17.9,12.7C181.3,234.7,180.7,234.3,180,234z"/>
	<path fill="#29414B" d="M182,235c3.4-5.7,10.1-7.4,14.6-11.8c2-1.9,4.6-3,6.4-5.2c4.7,1.1,5.4,5.9,7.9,8.9
		c-1.6,4.3-0.3,9.1-2.7,13.2c-1.1-3.9-4.5-1.9-6.7-2.4C195,236.5,188.5,235.9,182,235z"/>
	<path fill="#57909E" d="M235.1,159.2c1.5,0.1,3.7-0.9,4,1.4c0.2,1.6-0.1,3.6-2.2,4.5c-1.1,0.5-3.1,0.7-2.8,2.3
		c0.3,1.6,2.3,1.5,3.7,1.7c1.6,0.8,2.4,2,2.3,3.8c-0.1,2.4-0.1,4.8-0.2,7.2c-1.4,0.1-2.8-0.1-4.1,0.8c-3.1,2.3-5.6,0.9-8.1-1.2
		c-2.6-2.9,0.1-5.8,0-8.7C229.3,166.5,231.3,162.3,235.1,159.2z"/>
	<path fill="#365A67" d="M210.9,226.9c-4-1.7-4.3-6.7-7.9-8.9c-3.5-4.6-7-9.2-10.4-13.8c-1.3-1.7-2.4-1.9-4-0.5
		c-3.5,3-7.1,5.8-11,8.9c-0.4-1.1-1.1-2-1.1-2.9c0.3-5-2-9.7-1.5-14.7c2.4,0,4.7,1.9,7.1,0.3c0.1-0.3,0.1-0.6-0.1-0.9
		c-1-2-3.7-3.8-2.1-6.1c1.6-2.4,4.5-1.6,6.9-1.2c5.9,1,11.9,0.5,17.8,1.5c3.5-0.5,6.5-2.3,9.7-3.6c2-0.8,3.9-1.9,6.2-1.3
		c2.4,1.9,0.8,4.3,0.7,6.5c-0.1,1.8-0.9,3.5-1,5.4c-1.6,6.1-1.2,12.5-3.2,18.5C215,218.4,212.9,222.7,210.9,226.9z"/>
	<path fill="#27373B" d="M217.1,214.1c-0.4-6.5,0.3-12.8,2-19c2.7-5.6,4.8-11.5,9-16.3c2.3,1.9,5,2.5,7.9,2.2
		C232,193.3,225.7,204.3,217.1,214.1z"/>
	<path fill="#4E9CAF" d="M224,137c-0.3,0.4-0.6,0.7-1,1.1c-6.5,4.7-7.1,12-8.4,19c-3.1,3.3-7,4.5-11.4,4.5c-3.1-2.5-3.7-6.2-4.7-9.7
		c1.5-6.5,3.1-13.1,4.6-19.7c0.4-1.9,0.8-3.9,2.3-5.3c0.4-0.3,0.9-0.6,1.4-0.7c4.3,0.3,8.2,1.4,11.1,4.8
		C220.1,132.8,222.8,134.1,224,137z"/>
	<path fill="#5597AB" d="M204,106.2c7.8,3.5,13.3,10,20,14.9c-2.3,2-4.8,3.2-8,2.9c-3.2-2.5-5-6.7-9.4-8c-0.6-0.4-1.1-0.8-1.5-1.3
		c-2.2-1.9-1.4-4.4-1.2-6.8C204,107.4,204,106.8,204,106.2z"/>
	<path fill="#306E7B" d="M206.8,115.2c4.8,1.1,7.5,4.4,9.2,8.8c0.6,2.3,1.3,4.6,1.9,7c-3.7-1.3-7.3-2.6-11-3.9
		c0-0.2-0.1-0.4-0.1-0.5c4.8-2.5,2.5-5.3,0.4-8.1C206.7,117.4,206.1,116.4,206.8,115.2z"/>
	<path fill="#2C7081" d="M214,157c0.3-3.9,0.3-7.8,1.1-11.6c0.8-4.1,5.1-5.1,7.9-7.3c3,5.6,3.1,12.3,6,17.9c0.8,1.8-0.2,3.2-0.9,4.6
		c-2.4,4.9-4.9,9.7-7,14.8c-1.2,3-3.1,5.5-7,5.2c-2.6-0.8-3.2-2.6-2.4-5.1c0.2-0.8,0.5-1.6,0.8-2.4C214.6,167.9,217.5,162.7,214,157
		z"/>
	<path fill="#102025" d="M213.9,179.9c3.2,0,4.6-2,5.8-4.6c3-6.5,6.1-12.9,9.2-19.4c2.4-1.6,3.3-4.7,6-6c2.1,3.1-0.3,6.2,0.1,9.2
		c-1.6,4.1-5,7.4-6.1,11.8c-2.8,4.5-3.6,10.3-9,13c-5,2-9.9,4-14.9,6c-0.1-4.1,3.1-6.3,5.1-9.2c0.5-0.5,1.1-0.9,1.7-1.1
		C212.6,179.5,213.3,179.4,213.9,179.9z"/>
	<path fill="#63AEC0" d="M206,127c-1.7,6.7-3.3,13.4-5,20c-0.4,1.7-0.6,3.6-2,4.9c-7.3,1.8-14.5,3.7-22,1c4-5.8,8.1-11.5,7.9-19
		c0.7-0.7,1.4-1.3,2-2c5.4-3.7,11.8-4.7,17.8-6.5C205.6,125.7,206.3,126,206,127z"/>
	<path fill="#548F96" d="M206,127c-0.3-0.3-0.6-0.7-1-1c-4.6-1.8-9.1-3.7-12-8c0.3-1.7,0.7-3.3,1-5c3.8-0.7,6-4.6,10-5.1
		c2.3,1.5-0.6,4.7,2,6c-0.6,0.8-1.5,1.2-2.3,1.7c-1,0.8-1.6,1.8-0.8,2.9c1,1.5,2,0.2,2.9-0.3c0.7-0.4,1.4-0.8,2.3-0.4
		c0.1,0.1,0.3,0.2,0.4,0.3c4.3,5.8,4.3,5.8-1.4,8.8C206.7,127,206.3,127,206,127z"/>
	<path fill="#418898" d="M193,118c4,2.7,8.5,4.7,12,8c-5.8,2.7-11.9,4.4-18,5.9C188,126.9,190.6,122.5,193,118z"/>
	<path fill="#5FA3B7" d="M177,153c7.4,0.3,14.6-1.7,22-1c2.2,2.6,2.5,6.1,4,9.1c0.3,0.5,0.2,0.9,0,1.3c-0.5,0.4,0.2,0-0.3,0.4
		c-9.7,7.3-10.8,7.3-19.3-1.2c-1.2-1.2-2.3-2.4-3.4-3.6c0,0,0,0,0,0c-1-1.3-2-2.7-3-4C177,153.7,177,153.3,177,153z"/>
	<path fill="#4A89A3" d="M180,158c3.7,0.7,5.5,4,7.8,6.4c2.5,2.8,4.7,3.5,7.9,1.3c2.3-1.5,4.9-2.5,7.3-3.8c2.7,1,3.1,3.7,4.1,5.8
		c1.9,4,2.9,8.4,5.1,12.2c-0.4,0.3-0.7,0.7-1.1,1c-7.2,3.6-14.9,2.9-22.4,1.5c-5-0.9-10.6-0.9-14.7-4.8
		C175.9,171.2,178.8,164.9,180,158z"/>
	<path fill="#254752" d="M173.9,177.8c12.1,3.7,24.4,5.4,37.1,3.2c-2,3-3.9,5.9-5.9,8.9c-6.6-1.5-13.4-0.4-20-1.8
		c-1.4-0.3-3.6-1-4.5,0.8c-0.6,1.4,1.2,2.5,1.9,3.8c0.7,1.3,1.9,2.2,2.7,3.9c-3.4-1.2-7.4,4.1-10.2-1.5c0-0.4-0.1-0.8-0.1-1.2
		c-1.1-3.2,2-4.6,3-6.8c0.5-1.2,1.6-2.3,0.7-3.6c-1-1.5-2.6-1.1-4.1-0.8c-2.3,0.4-3.6,2.1-5,3.8c-1.1,1.4-2,3-3.6,4.1
		c-3.9,0.3-6.6-1.7-9-4.4c0.4-1.3,0.7-2.6,1.1-3.9C163.4,180.7,168.7,179.3,173.9,177.8z"/>
	<path fill="#79C4CA" d="M147.2,171.8c1.4-2.5,1.3-6.2,3.3-9.1c3.6-5.3,8.9-5.4,12.5,0c1.8,2.7,3.2,5.8,4.8,8.7
		c0.6,1.1,0.7,2.2-0.5,2.3c-5.9,0.6-11.5,4.8-17.8,1.8C148.2,174.7,146.7,174.5,147.2,171.8z"/>
	<path fill="#82BFCD" d="M165.8,189.9c2-3.8,4.1-7.6,8.7-8.8c2.1-0.6,4.2-0.6,5.8,1.4c1.6,2-0.2,3.4-1,4.8c-1.3,2.2-2.9,4.4-4.3,6.5
		c-1.3,1.7-2.6,3.5-3.8,5.2c-1.5,1.5-3.1,2.4-5.1,1.1c-0.3-0.1-0.6-0.2-0.9-0.4c-1-1.5-1-3.2-1.1-4.9
		C162.6,192.5,164.4,191.3,165.8,189.9z"/>
	<path fill="#60737F" d="M165.8,189.9c-0.6,1.7-1.3,3.4-1.9,5c-0.3,0.1-0.5,0.1-0.8,0.2c-3.4-2.1-5.7-4.9-6-9.1c0,0,0,0,0,0
		C160.3,186.5,162.3,190,165.8,189.9z"/>
	<path fill="#29565C" d="M157,186c2.2,2.9,3.4,6.5,6,9.1c-0.2,0.9-0.2,2.3-1.5,0.8c-1.8-2-3-4.6-5.5-6.1c0-1.6-1.4-2.5-2.1-3.8
		C155,184.3,156,185.8,157,186z"/>
	<path fill="#498B99" d="M165.9,200.2c1.7-0.4,3.4-0.7,5.1-1.1c0.4,3,0.7,5.9,1.1,8.9C168.5,206.6,167.6,203.1,165.9,200.2z"/>
	<path fill="#2D4F56" d="M220,184c3.7-3.8,5-9.3,9-13c1.3,2.8-2.3,5-0.9,7.8c-2.2,5.9-5.1,11.3-9,16.3
		C218.7,191.3,221.8,187.8,220,184z"/>
	<path fill="#397D8F" d="M212.2,180.1c-4.4-2.1-3.6-7.1-5.7-10.5c-1.5-2.3-2.3-5.1-3.4-7.6c0-0.3,0-0.6,0.1-0.9
		c3.7-1.1,7.5-2.2,10.9-4.1c6.8,5.3,1.4,10.7,0,16c-0.6,2.3-3.1,4.6,0,6.9C213.3,180,212.7,180,212.2,180.1z"/>
	<path fill="#272726" d="M208,118c-0.5,0.4-1,0.8-1.5,1.2c-1.2,0.8-1.8,3-4,1.8c-1.3-0.7-1.6-1.7-1.6-3.2c0-2.2,1.2-3.2,3.1-3.7
		c0.6-0.1,1.3-0.1,1.9-0.1c0.3,0.4,0.6,0.8,0.8,1.2C207.2,116.1,207.6,117,208,118z"/>
</g>
</svg>
