<?xml version="1.0" encoding="utf-8"?>
<!-- Generator: Adobe Illustrator 18.1.1, SVG Export Plug-In . SVG Version: 6.00 Build 0)  -->
<!DOCTYPE svg PUBLIC "-//W3C//DTD SVG 1.1//EN" "http://www.w3.org/Graphics/SVG/1.1/DTD/svg11.dtd">
<svg version="1.1" id="Ebene_1" xmlns="http://www.w3.org/2000/svg" xmlns:xlink="http://www.w3.org/1999/xlink" x="0px" y="0px"
	 viewBox="0 0 90 90" enable-background="new 0 0 90 90" xml:space="preserve">
<g>
	<g>
		<path fill="#7039AB" d="M44.9,89.9c-14.2,0-28.3-0.1-42.5,0.1c-2.1,0-2.6-0.4-2.6-2.6C0,59.1,0,30.8-0.1,2.4
			c0-2.1,0.4-2.6,2.6-2.6c28.3,0.1,56.7,0.1,85,0c2.1,0,2.6,0.4,2.6,2.6c-0.1,28.3-0.1,56.7,0,85c0,2.1-0.4,2.6-2.6,2.6
			C73.3,89.9,59.1,89.9,44.9,89.9z"/>
		<path fill="#FDFDFD" d="M66.6,45c0,4.2,0.1,8.3,0,12.5c-0.2,5.7-3.3,8.9-9.1,9c-8.3,0.2-16.6,0.1-24.9,0c-5.8-0.1-9-3.3-9.1-9
			c-0.2-8.5-0.2-17,0-25.4c0.1-5.4,3.4-8.7,8.9-8.8c8.5-0.2,17-0.2,25.4,0c5.7,0.1,8.8,3.5,8.9,9.2C66.7,36.7,66.6,40.9,66.6,45
			C66.6,45,66.6,45,66.6,45z"/>
		<path fill="#6F38AB" d="M44.7,62.3c-3.8,0-7.6-0.1-11.5,0c-3.7,0.1-5.6-1.4-5.6-5.3c0.1-4.5,0.1-9,0-13.5c-0.1-2.6,1.3-2.9,3.4-3
			c2.3,0,2.5,0.8,2.3,3C32.8,51,38.2,56.8,45,56.8c6.8,0,12-5.8,11.6-13.3c-0.1-1.7-0.4-2.9,1.9-2.8c1.8,0.1,3.8-0.3,3.7,2.6
			c-0.1,5,0,10-0.1,15c-0.1,2.9-1.8,4.1-4.6,4.1C53.3,62.3,49,62.3,44.7,62.3C44.7,62.3,44.7,62.3,44.7,62.3z"/>
		<path fill="#703AAC" d="M44.8,52.6c-4.1-0.1-7.5-3.6-7.4-7.7c0.1-4.2,3.5-7.5,7.7-7.4c4.2,0.1,7.6,3.6,7.4,7.7
			C52.5,49.3,48.9,52.7,44.8,52.6z"/>
		<path fill="#6E36AB" d="M58.3,28.4c3.2-0.6,3.2,1.4,3.3,3.8c0.2,3-1.2,3.4-3.8,3.5c-3.4,0.2-3.6-1.5-3.7-4.2
			C54.1,28.3,55.9,28.2,58.3,28.4z"/>
	</g>
</g>
</svg>
