<?xml version="1.0" encoding="utf-8"?>
<!-- Generator: Adobe Illustrator 18.1.1, SVG Export Plug-In . SVG Version: 6.00 Build 0)  -->
<!DOCTYPE svg PUBLIC "-//W3C//DTD SVG 1.1//EN" "http://www.w3.org/Graphics/SVG/1.1/DTD/svg11.dtd">
<svg version="1.1" id="Ebene_1" xmlns="http://www.w3.org/2000/svg" xmlns:xlink="http://www.w3.org/1999/xlink" x="0px" y="0px"
	 viewBox="0 0 313.1 313.1" enable-background="new 0 0 313.1 313.1" xml:space="preserve">
<g>
	<g>
		<path fill="#3086E1" d="M156.5,313c-50.5,0-101,0-151.5,0.1c-3.4,0-4.1-0.7-4.1-4.1C1,207.7,1,106.3,0.9,5c0-3.4,0.7-4.1,4.1-4.1
			C106.3,1,207.7,1,309,0.9c3.4,0,4.1,0.7,4.1,4.1c-0.1,101.3-0.1,202.7,0,304c0,3.4-0.7,4.1-4.1,4.1C258.2,313,207.3,313,156.5,313
			z"/>
		<path fill="#FEFEFE" d="M224.1,156.8c0,19,0,38,0,57c0,7.5-3.4,10.9-11,10.9c-37.3,0-74.7,0-112,0c-7.3,0-11.1-3.8-11.1-11.1
			c-0.1-37.7-0.1-75.3,0-113c0-7.2,3.7-10.7,10.8-10.7c37.7,0,75.3,0,113,0c7.1,0,10.3,3.3,10.4,10.4
			C224.2,119.2,224.2,138,224.1,156.8C224.2,156.8,224.1,156.8,224.1,156.8z"/>
		<path fill="#3087E1" d="M162.3,148.4c12.2-12.9,30.4-9.2,36.9-0.4c4.1,5.5,5.4,11.8,5.5,18.3c0.3,11.1,0,22.3,0.2,33.5
			c0,3.1-1.1,4.1-4.1,3.9c-4.5-0.2-9-0.2-13.5,0c-3.2,0.1-4.4-0.9-4.3-4.2c0.2-8.8,0.1-17.7,0.1-26.5c0-2,0-4-0.1-6
			c-0.5-6.1-4.4-10.1-9.6-10.1c-5.7,0-10.3,4.5-10.4,10.6c-0.2,10.5-0.2,21,0,31.5c0.1,3.8-1.1,5-4.8,4.8c-4.5-0.3-9-0.2-13.5,0
			c-2.6,0.1-3.6-0.9-3.5-3.5c0.4-13-0.2-25.9,0.6-38.9c0.3-5.3-0.2-10.6-0.5-15.9c-0.2-3.1,0.6-4.6,4.1-4.3c3.6,0.3,7.3,0.1,11,0
			C160.5,141,164.7,140.4,162.3,148.4z"/>
		<path fill="#3087E1" d="M131,172.5c0,9-0.1,18,0.1,26.9c0,2.8-0.8,3.8-3.7,3.7c-4.6-0.2-9.3-0.2-14,0c-2.5,0.1-3.5-0.6-3.5-3.3
			c0.1-18.1,0.1-36.2,0-54.4c0-2.7,0.8-3.9,3.6-3.8c4.5,0.2,9,0.2,13.5,0c3-0.1,4,1,4,4C130.9,154.5,131,163.5,131,172.5z"/>
		<path fill="#3087E1" d="M120.9,112c7.2,0,11.6,4.1,11.7,10.7c0,6.5-5,11.2-11.9,11.2c-7.2,0-11.6-4.2-11.6-11.2
			C109,115.6,113.1,112,120.9,112z"/>
	</g>
</g>
</svg>
