<?xml version="1.0" encoding="utf-8"?>
<!-- Generator: Adobe Illustrator 18.1.1, SVG Export Plug-In . SVG Version: 6.00 Build 0)  -->
<!DOCTYPE svg PUBLIC "-//W3C//DTD SVG 1.1//EN" "http://www.w3.org/Graphics/SVG/1.1/DTD/svg11.dtd">
<svg version="1.1" id="Ebene_1" xmlns="http://www.w3.org/2000/svg" xmlns:xlink="http://www.w3.org/1999/xlink" x="0px" y="0px"
	 viewBox="0 0 190.2 190.2" enable-background="new 0 0 190.2 190.2" xml:space="preserve">
<g>
	<path fill="#010101" d="M0.1,190.1c0-62,0-124-0.1-186C0,0.7,0.7,0,4.1,0c60.7,0.1,121.3,0.1,182,0c3.4,0,4.1,0.7,4.1,4.1
		c-0.1,60.7-0.1,121.3,0,182c0,3.4-0.7,4.1-4.1,4.1C124.1,190.1,62.1,190.1,0.1,190.1z M73.8,92.3c2.9,10.9,5.8,21.8,8.8,32.7
		c2.3,8.5,2.4,8.3,11,8.4c3.1,0,4.7-0.8,5.6-4.1c2.4-9.3,5.2-18.5,7.9-27.8c2.7-9.1,5.4-18.2,8.2-27.3c0.9,14.6,0.8,29.1,0.9,43.6
		c0,3.6-0.4,5.8-4.7,5.1c-4.3-0.7-3.4,2.6-3.2,4.9c0.2,2.1-2,5.7,3,5.7c9.8-0.1,19.7-0.1,29.5,0c2.3,0,3.8-0.7,3-3
		c-0.8-2.5,2.7-6.9-2.6-7.4c-4.2-0.4-5.3-2.3-5.3-6.1c0.1-14.2,0.1-28.3,0-42.5c0-3.6,1-6,5-5.6c2.6,0.2,3.1-1.1,2.9-3.3
		c-0.1-1.5-0.2-3,0-4.5c0.4-3.2-0.7-4.3-4.1-4.2c-9.7,0.2-19.3,0.3-29,0c-3.5-0.1-4.8,1.1-5.7,4.4c-3.5,12.7-6.3,25.5-10.6,37.8
		c-1.3,0-1.4-0.7-1.6-1.3c-3.3-12.5-6.6-24.9-9.8-37.4c-0.5-1.9-0.9-3.5-3.4-3.4c-10.3,0.1-20.7,0.1-31,0c-1.9,0-2.8,0.5-2.7,2.6
		c0.1,1.7,0.1,3.3,0,5c-0.3,2.9,0.2,4.8,3.9,4.5c2.9-0.3,4.1,1.7,4.1,4.4c0,15,0,30,0,45c0,2.1-0.9,4.3-2.7,4.2
		c-6.7-0.4-5,4.1-5.2,7.8c-0.1,2.4,0.7,3.2,3.1,3.1c6.3-0.1,12.7,0,19,0c7.4,0,7.4,0,7-7.6c-0.1-2-0.4-3.3-2.7-2.9
		c-3.7,0.7-4-1.4-3.9-4.3c0.1-13,0-26,0-39c0.4-0.1,0.9-0.3,1.3-0.4c0.1,1,0.2,1.9,0.2,2.9c-0.4,0.8,0,1.1,0.7,1.2
		c0.3,0.9,0.6,1.7,0.9,2.6c-0.5,1.1-0.2,2,0.8,2.6c0.1,0.6,0.3,1.1,0.4,1.7C72.3,91.2,72.8,91.9,73.8,92.3z"/>
	<path fill="#F8F8F8" d="M70.3,82c-0.1-1-0.2-1.9-0.2-2.9c0.2-1,0.6-2.6-0.9-2.4c-1.2,0.2-1,1.7-0.4,2.8c0,13,0.1,26,0,39
		c0,2.9,0.2,5,3.9,4.3c2.3-0.4,2.6,0.9,2.7,2.9c0.3,7.6,0.4,7.6-7,7.6c-6.3,0-12.7-0.1-19,0c-2.4,0.1-3.3-0.7-3.1-3.1
		c0.2-3.7-1.5-8.3,5.2-7.8c1.8,0.1,2.7-2.1,2.7-4.2c0-15,0-30,0-45c0-2.8-1.2-4.7-4.1-4.4c-3.7,0.3-4.1-1.6-3.9-4.5
		c0.1-1.7,0.1-3.3,0-5c-0.1-2,0.8-2.6,2.7-2.6c10.3,0,20.7,0.1,31,0c2.5,0,2.9,1.5,3.4,3.4c3.2,12.5,6.5,24.9,9.8,37.4
		c0.2,0.6,0.2,1.3,1.6,1.3c4.3-12.3,7.1-25.1,10.6-37.8c0.9-3.3,2.2-4.5,5.7-4.4c9.7,0.3,19.3,0.3,29,0c3.4-0.1,4.5,1,4.1,4.2
		c-0.2,1.5-0.1,3,0,4.5c0.2,2.2-0.3,3.6-2.9,3.3c-4.1-0.4-5.1,2-5,5.6c0.1,14.2,0.1,28.3,0,42.5c0,3.8,1.1,5.7,5.3,6.1
		c5.3,0.5,1.8,4.9,2.6,7.4c0.8,2.4-0.7,3.1-3,3c-9.8-0.1-19.7-0.1-29.5,0c-5,0.1-2.8-3.5-3-5.7c-0.2-2.2-1.1-5.6,3.2-4.9
		c4.3,0.7,4.8-1.5,4.7-5.1c-0.2-14.5-0.1-28.9-0.9-43.6c-2.7,9.1-5.5,18.2-8.2,27.3c-2.7,9.2-5.5,18.5-7.9,27.8
		c-0.9,3.3-2.4,4.1-5.6,4.1c-8.6-0.1-8.7,0.1-11-8.4c-3-10.9-5.9-21.8-8.8-32.7c0.4-1,0.1-1.7-0.8-2.2c-0.1-0.6-0.3-1.1-0.4-1.7
		c0.5-1.1,0.5-2-0.8-2.6c-0.3-0.9-0.6-1.7-0.9-2.6C70.8,82.8,70.6,82.4,70.3,82z"/>
	<path fill="#8D8D8D" d="M68.8,79.5c-0.6-1.1-0.8-2.7,0.4-2.8c1.5-0.2,1.1,1.4,0.9,2.4C69.6,79.2,69.2,79.4,68.8,79.5z"/>
	<path fill="#8D8D8D" d="M71.9,85.8c1.2,0.6,1.3,1.5,0.8,2.6C71.7,87.8,71.3,86.9,71.9,85.8z"/>
	<path fill="#8D8D8D" d="M73,90.1c0.9,0.5,1.2,1.2,0.8,2.2C72.8,91.9,72.3,91.2,73,90.1z"/>
	<path fill="#8D8D8D" d="M70.3,82c0.2,0.4,0.5,0.8,0.7,1.2C70.3,83.1,69.9,82.8,70.3,82z"/>
</g>
</svg>
