<?xml version="1.0" encoding="utf-8"?>
<!-- Generator: Adobe Illustrator 18.1.1, SVG Export Plug-In . SVG Version: 6.00 Build 0)  -->
<!DOCTYPE svg PUBLIC "-//W3C//DTD SVG 1.1//EN" "http://www.w3.org/Graphics/SVG/1.1/DTD/svg11.dtd">
<svg version="1.1" id="Ebene_1" xmlns="http://www.w3.org/2000/svg" xmlns:xlink="http://www.w3.org/1999/xlink" x="0px" y="0px"
	 viewBox="0 0 257.1 257.1" enable-background="new 0 0 257.1 257.1" xml:space="preserve">
<g>
	<g>
		<path fill="#15B2C8" d="M128.5,257c-41.3,0-82.7,0-124,0.1c-3,0-3.6-0.6-3.6-3.6c0.1-83,0.1-166,0-249c0-3,0.6-3.6,3.6-3.6
			c83,0.1,166,0.1,249,0c3,0,3.6,0.6,3.6,3.6c-0.1,83-0.1,166,0,249c0,3-0.6,3.6-3.6,3.6C211.8,257,170.2,257,128.5,257z"/>
		<path fill="#FEFEFE" d="M203.1,95.1c-1,1.1-1.7,2.6-3,3.4c-8.4,5.5-9.1,13.8-10.4,23c-8.9,66.3-74.7,93.5-125.9,67.8
			c-1.1-0.6-2.4-0.9-3.4-2.9c12-0.1,23.1-2.2,33.3-8c2.6-1.5,5.3-2.7,7.2-5.1c-0.8-2-2.6-1.3-3.9-1.5c-9.7-2.1-17-7.3-21.8-16
			c-1.4-2.6-1.4-3.9,2.1-3.8c2.7,0.1,5.7,0.6,8.9-1.5c-14.1-4.9-22.6-13.8-23.7-29.2c4.4,1,8,3.1,13.1,2.4
			c-12.5-11.3-16.4-24.3-9.4-40.2c6.4,7.1,12.9,13.1,20.5,17.9c12,7.7,25.1,12.2,39.2,13.6c3.4,0.4,4.2-0.4,3.9-3.9
			c-1.2-13.7,4.4-24.2,16.6-30.4c11.9-6,23.3-4.1,33.5,4.3c2.1,1.7,3.9,1.9,6.3,1.3c4.7-1.2,9.1-3.1,14.1-5.5
			c-1.2,6.9-6.8,10-10.2,15c4.4,0.7,7.9-1.1,11.6-2C202.9,93.6,203.3,94.1,203.1,95.1z"/>
		<path fill="#9BDEE7" d="M203.1,95.1c-0.4-0.4-0.8-0.9-1.2-1.3c0.7-0.9,1.9-1.4,2.4-0.7C205.1,94,203.9,94.6,203.1,95.1z"/>
	</g>
</g>
</svg>
