<?xml version="1.0" encoding="utf-8"?>
<!-- Generator: Adobe Illustrator 18.1.1, SVG Export Plug-In . SVG Version: 6.00 Build 0)  -->
<!DOCTYPE svg PUBLIC "-//W3C//DTD SVG 1.1//EN" "http://www.w3.org/Graphics/SVG/1.1/DTD/svg11.dtd">
<svg version="1.1" id="Ebene_1" xmlns="http://www.w3.org/2000/svg" xmlns:xlink="http://www.w3.org/1999/xlink" x="0px" y="0px"
	 viewBox="0 0 67 67" enable-background="new 0 0 67 67" xml:space="preserve">
<g>
	<g>
		<path fill="#01605E" d="M-0.5,67c0-22.5,0-45,0-67.5c22.5,0,45,0,67.5,0c0,22.5,0,45,0,67.5C44.5,67,22,67-0.5,67z M46.4,51.9
			c-2.3-4-4.3-7.5-6.3-11c-1.3-2.2-2-4.3-0.1-6.7c2.5-3.2,4.1-7,6.4-10.4c1.6-2.5,3.1-5.3,4.5-8.4c-3.3,0-6.2,0-8.8,0
			c-3.8,6.8-7.6,13.5-11.3,20.2c-0.6,1-1.5,2-0.7,3.4c2.4,4,4.8,8,7,12.1c0.5,0.9,1.1,0.9,1.8,0.9C41.2,52,43.5,51.9,46.4,51.9z
			 M17.8,21.8c1.3,2.4,2.1,4.1,3.1,5.6c1.5,2.2,1.5,3.8-0.3,6.1c-1.5,2-3.4,4.3-3.8,7.3c2.7-0.2,6,1.2,7.7-0.7
			c2.5-2.8,4.8-6.3,5.7-9.9c0.6-2.4-1.9-5.2-3.8-7.2C24.2,20.7,21.2,22.6,17.8,21.8z"/>
		<path fill="#F4F8F8" d="M46.4,51.9c-2.9,0-5.2,0-7.5,0c-0.7,0-1.3,0-1.8-0.9c-2.2-4.1-4.6-8.1-7-12.1c-0.8-1.4,0.1-2.3,0.7-3.4
			c3.7-6.7,7.5-13.3,11.3-20.2c2.6,0,5.4,0,8.8,0c-1.4,3.1-2.9,5.9-4.5,8.4c-2.2,3.4-3.9,7.2-6.4,10.4c-1.9,2.5-1.2,4.5,0.1,6.7
			C42.1,44.4,44.1,48,46.4,51.9z"/>
		<path fill="#F4F8F8" d="M17.8,21.8c3.4,0.9,6.4-1,8.6,1.3c1.9,2,4.4,4.8,3.8,7.2c-0.9,3.6-3.2,7.1-5.7,9.9c-1.7,1.9-5,0.5-7.7,0.7
			c0.4-3,2.3-5.2,3.8-7.3c1.8-2.4,1.8-3.9,0.3-6.1C19.9,25.8,19.2,24.1,17.8,21.8z"/>
	</g>
</g>
</svg>
